<svg id="Layer_1" data-name="Layer 1" xmlns="http://www.w3.org/2000/svg" xmlns:xlink="http://www.w3.org/1999/xlink" width="173" height="173" viewBox="0 0 173 173"><defs><linearGradient id="linear-gradient" x1="43.74" y1="160.56" x2="129.26" y2="12.44" gradientUnits="userSpaceOnUse"><stop offset="0" stop-color="#ff5c3c"/><stop offset="0.57" stop-color="#fd8f07"/><stop offset="1" stop-color="#ffd32a"/></linearGradient><linearGradient id="linear-gradient-2" x1="61.86" y1="147.49" x2="102.72" y2="76.74" xlink:href="#linear-gradient"/><linearGradient id="linear-gradient-3" x1="72" y1="96.97" x2="113.03" y2="25.91" xlink:href="#linear-gradient"/><linearGradient id="linear-gradient-4" x1="2852.55" y1="2585.16" x2="2860.62" y2="2605.27" gradientTransform="translate(3345.71 2240.46) rotate(171.86)" xlink:href="#linear-gradient"/><linearGradient id="linear-gradient-5" x1="2852.36" y1="2584.69" x2="2860.8" y2="2605.73" gradientTransform="translate(3345.71 2240.46) rotate(171.86)" xlink:href="#linear-gradient"/><linearGradient id="linear-gradient-6" x1="251.32" y1="-163.7" x2="262.27" y2="-182.66" gradientTransform="translate(-201.65 303.18) rotate(-8.14)" xlink:href="#linear-gradient"/><linearGradient id="linear-gradient-7" x1="251.07" y1="-163.27" x2="262.52" y2="-183.09" gradientTransform="translate(-201.65 303.18) rotate(-8.14)" xlink:href="#linear-gradient"/></defs><title>knapper</title><circle cx="86.5" cy="86.5" r="82.5" fill="none" stroke-miterlimit="10" stroke-width="6" stroke="url(#linear-gradient)"/><path d="M147.11,103.23a62.45,62.45,0,0,1-121-2.74" fill="none" stroke-miterlimit="10" stroke-width="6" stroke="url(#linear-gradient-2)"/><path d="M26.73,70A62.45,62.45,0,0,1,148.44,75.5" fill="none" stroke-miterlimit="10" stroke-width="6" stroke="url(#linear-gradient-3)"/><polygon points="149.85 88.62 158 68.31 136.33 71.4 149.85 88.62" stroke-linecap="round" stroke-linejoin="round" fill="url(#linear-gradient-4)" stroke="url(#linear-gradient-5)"/><polygon points="23.32 81.71 15.17 102.02 36.84 98.92 23.32 81.71" stroke-linecap="round" stroke-linejoin="round" fill="url(#linear-gradient-6)" stroke="url(#linear-gradient-7)"/></svg>