<svg id="Layer_1" data-name="Layer 1" xmlns="http://www.w3.org/2000/svg" width="332.06" height="233.02" viewBox="0 0 332.06 233.02">
  <defs>
    <style>
      .cls-1 {
        fill: #05c46b;
      }

      .cls-2 {
        fill: #0c2461;
      }

      .cls-3 {
        fill: #fd8f07;
      }

      .cls-4 {
        font-size: 20.41px;
        font-family: Oswald-Regular, Oswald;
      }
    </style>
  </defs>
  <title>spinTheWheels</title>
  <g>
    <rect class="cls-1" y="82.8" width="175.07" height="70.41" rx="15.47"/>
    <g>
      <path class="cls-1" d="M358.56,138.33a116.67,116.67,0,0,1-3.7,29.26c-.13.51-.27,1-.41,1.54a115.2,115.2,0,0,1-4.7,13.74l-.46,1.09c-.44,1-.9,2.07-1.37,3.09a116.32,116.32,0,0,1-6.75,12.55c-.58,1-1.18,1.89-1.79,2.81A117.47,117.47,0,0,1,331,213.59c-.6.7-1.2,1.39-1.82,2.08a114.84,114.84,0,0,1-9.8,9.81c-.69.61-1.38,1.21-2.09,1.81a118.61,118.61,0,0,1-11.17,8.37c-.93.61-1.86,1.21-2.81,1.79a116.32,116.32,0,0,1-12.55,6.75c-1,.48-2.06.93-3.11,1.38l-1.07.45a114.75,114.75,0,0,1-13.75,4.7c-.51.15-1,.28-1.55.41a116.53,116.53,0,1,1,87.27-112.81Z" transform="translate(-26.5 -21.82)"/>
      <path class="cls-2" d="M215.38,80.08A65.28,65.28,0,0,1,298.15,102l1.18-6.63a5.66,5.66,0,0,1,11.15,2l-4,22.42a5.76,5.76,0,0,1-6.76,5.62l-23.47-4.21a5.66,5.66,0,0,1,2-11.15l13,2.34a53.94,53.94,0,0,0-70.87-22.17,5.66,5.66,0,1,1-5-10.16Zm-1.31,103.38A53.95,53.95,0,0,1,197.83,111l4.49,12.44A5.66,5.66,0,1,0,213,119.6l-8.09-22.43a5.77,5.77,0,0,0-8.17-3.08l-21.51,7.76A5.66,5.66,0,0,0,179,112.5l6.36-2.29a65.27,65.27,0,0,0,22.37,82.66,5.66,5.66,0,1,0,6.3-9.41Zm40.63,32.65a5.66,5.66,0,0,0-.67-8l-5.16-4.36a64.64,64.64,0,0,0,35.25-13.51,65.36,65.36,0,0,0,25.14-47.2,5.67,5.67,0,0,0-11.31-.75,53.95,53.95,0,0,1-54.62,50.3l8.53-10.1a5.66,5.66,0,1,0-8.65-7.31l-15.38,18.22a5.71,5.71,0,0,0,1.47,8.65l17.42,14.71A5.66,5.66,0,0,0,254.7,216.11Z" transform="translate(-26.5 -21.82)"/>
      <path class="cls-3" d="M345.35,218l-26.9-26.9,19.19-11.08a4.52,4.52,0,0,0-.59-8.12L251.48,137.8a4.52,4.52,0,0,0-5.88,5.87l34.13,85.59a4.53,4.53,0,0,0,8.12.58l11.08-19.19,26.9,26.9a4.5,4.5,0,0,0,6.39,0l13.13-13.13A4.53,4.53,0,0,0,345.35,218Z" transform="translate(-26.5 -21.82)"/>
    </g>
    <text class="cls-4" transform="translate(6.75 126.23)">SPIN THE WHEELS</text>
  </g>
</svg>
