<svg id="Layer_1" data-name="Layer 1" xmlns="http://www.w3.org/2000/svg" xmlns:xlink="http://www.w3.org/1999/xlink" width="216" height="101" viewBox="0 0 216 101"><defs><linearGradient id="linear-gradient" x1="65.4" y1="127.52" x2="152.6" y2="-23.52" gradientUnits="userSpaceOnUse"><stop offset="0" stop-color="#ff5c3c"/><stop offset="0.57" stop-color="#fd8f07"/><stop offset="1" stop-color="#ffd32a"/></linearGradient><linearGradient id="spaceknap" x1="58.73" y1="50.81" x2="162.77" y2="50.81" gradientUnits="userSpaceOnUse"><stop offset="0.03" stop-color="#ff6137"/><stop offset="0.14" stop-color="#ff7934"/><stop offset="0.33" stop-color="#ff9d2e"/><stop offset="0.48" stop-color="#ffb42b"/><stop offset="0.58" stop-color="#ffbc2a"/><stop offset="0.62" stop-color="#ffbf2a"/><stop offset="0.8" stop-color="#ffca28"/><stop offset="1" stop-color="#ffce27"/></linearGradient></defs><title>space_knap</title><rect x="8" y="8" width="202" height="88" rx="12" fill="none" stroke-miterlimit="10" stroke-width="6" stroke="url(#linear-gradient)"/><text transform="translate(58.09 61.17)" font-size="36" font-family="Lato-Bold, Lato" font-weight="700">Spil nu</text><path d="M74.66,39.88a1.32,1.32,0,0,1-.46.56,1.12,1.12,0,0,1-.62.16,1.54,1.54,0,0,1-.81-.28c-.3-.19-.65-.39-1.06-.62a8,8,0,0,0-1.43-.62,5.91,5.91,0,0,0-1.93-.28,5.76,5.76,0,0,0-1.76.24,3.62,3.62,0,0,0-1.26.68,2.64,2.64,0,0,0-.76,1,3.39,3.39,0,0,0-.26,1.33,2.27,2.27,0,0,0,.52,1.53,4.33,4.33,0,0,0,1.36,1,11.46,11.46,0,0,0,1.92.77c.72.23,1.46.47,2.21.73a22.07,22.07,0,0,1,2.2.9,7.79,7.79,0,0,1,1.93,1.3,6,6,0,0,1,1.36,1.92A6.65,6.65,0,0,1,76.32,53a9,9,0,0,1-.6,3.3A7.6,7.6,0,0,1,74,59a8.07,8.07,0,0,1-2.83,1.8,10.44,10.44,0,0,1-3.84.66,12.46,12.46,0,0,1-2.44-.24,12.7,12.7,0,0,1-2.32-.69,11.93,11.93,0,0,1-2.07-1.08A10.35,10.35,0,0,1,58.73,58l1.41-2.32a1.71,1.71,0,0,1,.47-.42,1.15,1.15,0,0,1,.63-.17,1.74,1.74,0,0,1,1,.36c.35.25.76.52,1.23.82a9,9,0,0,0,1.67.82,6.45,6.45,0,0,0,2.32.37,4.75,4.75,0,0,0,3.2-1,3.51,3.51,0,0,0,1.14-2.82A2.62,2.62,0,0,0,71.25,52a4,4,0,0,0-1.36-1.09A10.67,10.67,0,0,0,68,50.19c-.72-.2-1.45-.42-2.2-.66a18.47,18.47,0,0,1-2.19-.87,6.93,6.93,0,0,1-1.93-1.31,6,6,0,0,1-1.36-2,7.71,7.71,0,0,1-.51-3,7.21,7.21,0,0,1,.56-2.77A7.14,7.14,0,0,1,62,37.16a8.36,8.36,0,0,1,2.67-1.67,9.78,9.78,0,0,1,3.62-.63,12.15,12.15,0,0,1,4.25.72,9.57,9.57,0,0,1,3.31,2Z" fill="url(#spaceknap)"/><path d="M79.78,67.2V42.71h2.71a1.34,1.34,0,0,1,.74.19.94.94,0,0,1,.4.62L84,45.23a9,9,0,0,1,2.56-2.07,7,7,0,0,1,3.4-.8,6.08,6.08,0,0,1,2.76.63,6.26,6.26,0,0,1,2.16,1.83,8.88,8.88,0,0,1,1.4,3,14.86,14.86,0,0,1,.5,4,12.71,12.71,0,0,1-.56,3.83,9.26,9.26,0,0,1-1.59,3.06,7.33,7.33,0,0,1-2.51,2,7.19,7.19,0,0,1-3.28.73A6.81,6.81,0,0,1,86.17,61a6.56,6.56,0,0,1-2-1.33V67.2Zm8.64-21.33a4.53,4.53,0,0,0-2.37.59,6.84,6.84,0,0,0-1.83,1.65v8.28a4.3,4.3,0,0,0,1.65,1.3,4.87,4.87,0,0,0,1.92.37,4.29,4.29,0,0,0,1.82-.38A3.49,3.49,0,0,0,91,56.53a5.65,5.65,0,0,0,.87-2,10.93,10.93,0,0,0,.31-2.78,12.64,12.64,0,0,0-.26-2.75,5.54,5.54,0,0,0-.75-1.83,2.94,2.94,0,0,0-1.18-1A3.62,3.62,0,0,0,88.42,45.87Z" fill="url(#spaceknap)"/><path d="M105.53,37.32a2.58,2.58,0,0,1-.23,1.08,3.09,3.09,0,0,1-.62.89,3,3,0,0,1-.91.6,2.8,2.8,0,0,1-1.12.22,2.72,2.72,0,0,1-1.09-.22,2.91,2.91,0,0,1-.89-.6,3,3,0,0,1-.6-.89,2.58,2.58,0,0,1-.23-1.08,2.79,2.79,0,0,1,.23-1.11,2.84,2.84,0,0,1,.6-.9,2.93,2.93,0,0,1,.89-.61,2.72,2.72,0,0,1,1.09-.22,2.8,2.8,0,0,1,1.12.22,3,3,0,0,1,.91.61,2.89,2.89,0,0,1,.62.9A2.79,2.79,0,0,1,105.53,37.32Zm-.66,5.39V61.17h-4.45V42.71Z" fill="url(#spaceknap)"/><path d="M114.62,34.43V61.17h-4.44V34.43Z" fill="url(#spaceknap)"/><path d="M126.59,61.17V42.71h2.72a1.08,1.08,0,0,1,1.13.81l.31,1.45a10.46,10.46,0,0,1,1.18-1,8.4,8.4,0,0,1,1.31-.81,6.74,6.74,0,0,1,1.49-.52,7.79,7.79,0,0,1,1.73-.18,6.67,6.67,0,0,1,2.68.51,5.23,5.23,0,0,1,2,1.44,6.44,6.44,0,0,1,1.19,2.21,9.46,9.46,0,0,1,.4,2.84V61.17h-4.44V49.42a4,4,0,0,0-.78-2.62,2.92,2.92,0,0,0-2.35-.93,4.6,4.6,0,0,0-2.16.53A7.41,7.41,0,0,0,131,47.82V61.17Z" fill="url(#spaceknap)"/><path d="M151.13,42.71V54.44a4,4,0,0,0,.78,2.62,2.89,2.89,0,0,0,2.35.93,4.59,4.59,0,0,0,2.16-.52,7.53,7.53,0,0,0,1.91-1.41V42.71h4.44V61.17h-2.72a1.09,1.09,0,0,1-1.13-.81l-.31-1.47a14.32,14.32,0,0,1-1.18,1,7.17,7.17,0,0,1-2.8,1.33,7.31,7.31,0,0,1-1.72.19,6.56,6.56,0,0,1-2.67-.51,5.37,5.37,0,0,1-2-1.45,6.34,6.34,0,0,1-1.2-2.22,9.46,9.46,0,0,1-.4-2.84V42.71Z" fill="url(#spaceknap)"/></svg>