<svg xmlns="http://www.w3.org/2000/svg" width="933.45" height="909.34" viewBox="0 0 933.45 909.34"><title>flyvendealien</title><g id="Layer_2" data-name="Layer 2"><path d="M824.1,88.53,837.17,100l-58.9,67.32L765.2,155.85Z" fill="#36b9c7"/><path d="M851.59,97a19.36,19.36,0,1,1-13-24.09A19.37,19.37,0,0,1,851.59,97Z" fill="#804a97"/><path d="M633.88,116.68l-17.2,2.41-12.4-88.58,17.19-2.41Z" fill="#36b9c7"/><path d="M630.92,31.22a19.36,19.36,0,1,1-13-24.09A19.35,19.35,0,0,1,630.92,31.22Z" fill="#804a97"/><path d="M781.52,557.6A30.24,30.24,0,0,1,743.89,578L422.62,482.13a30.25,30.25,0,0,1,17.29-58A37.85,37.85,0,0,0,487,398.69L552.48,179.2a129.76,129.76,0,1,1,248.7,74.18L735.72,472.87A37.85,37.85,0,0,0,761.18,520a30.26,30.26,0,0,1,20.34,37.63Z" fill="#31b8c6"/><path d="M781.52,557.6A30.25,30.25,0,0,1,743.88,578l-2.74-.81a30.26,30.26,0,0,0-16-46.48,37.86,37.86,0,0,1-25.46-47.1L771,244.37a129.81,129.81,0,0,0-72.4-156,129.87,129.87,0,0,1,102.61,165L735.72,472.87A37.85,37.85,0,0,0,761.18,520a30.25,30.25,0,0,1,20.34,37.63Z" fill="#31b8c6"/><path d="M708.48,561.11a50.06,50.06,0,0,1-2.06,5.66l-95.75-28.56a49.63,49.63,0,0,1,1.37-5.86,50.32,50.32,0,0,1,96.44,28.76Z" fill="#31b8c6"/><path d="M666,169.13a67.22,67.22,0,0,1-117.17,22.44l3.69-12.37A129.79,129.79,0,0,1,637,92.79,67.26,67.26,0,0,1,666,169.13Z" fill="#31b8c6"/><path d="M784.61,309l-26.19,87.81A46.82,46.82,0,0,1,784.61,309Z" fill="#31b8c6"/><path d="M784.61,309l-26.19,87.81a46.94,46.94,0,0,1-23.49-31.56l12.74-42.72A46.94,46.94,0,0,1,784.61,309Z" fill="#00a7ce"/><path d="M730.16,226.06A53.89,53.89,0,1,1,693.92,159,53.9,53.9,0,0,1,730.16,226.06Z" fill="#fef6e4"/><path d="M730.16,226.06A26.95,26.95,0,1,1,712,192.53,26.95,26.95,0,0,1,730.16,226.06Z" fill="#804a97"/><path d="M684.15,339.41a42.2,42.2,0,1,1-28.38-52.51A42.21,42.21,0,0,1,684.15,339.41Z" fill="#fef6e4"/><path d="M682.49,323.35a21.1,21.1,0,1,1-14.19-26.26A21.1,21.1,0,0,1,682.49,323.35Z" fill="#804a97"/><path d="M646.1,448.76l-9-11.81a59,59,0,0,0,29.32-13.43l-1,19.24A10.8,10.8,0,0,1,646.1,448.76Z" fill="#fef6e4"/><path d="M609.35,442.55a66.54,66.54,0,0,1-47.14-69.34,7.72,7.72,0,0,1,15.37,1.36,51.06,51.06,0,0,0,36.18,53.2A50.26,50.26,0,0,0,636,429.32a50.89,50.89,0,0,0,41.14-35.79,7.71,7.71,0,0,1,14.78,4.41,66.31,66.31,0,0,1-82.52,44.61Z" fill="#009db7"/><path d="M548.79,436.11a18.86,18.86,0,1,1-12.68-23.45A18.86,18.86,0,0,1,548.79,436.11Z" fill="#31b8c6"/><path d="M549.07,375.82a7.71,7.71,0,0,1,4.36-14.8c.28.08,16.49,4.57,31.64-1.44a7.71,7.71,0,1,1,5.68,14.33c-20.25,8-40.78,2.17-41.64,1.92Z" fill="#009db7"/><path d="M587.17,268.7l-.11,0a7.71,7.71,0,0,1,4.41-14.78l.11,0a7.71,7.71,0,0,1-4.41,14.78Z" fill="#804a97"/><path d="M701.5,489.71l-.1,0a7.71,7.71,0,0,1,4.41-14.78l.1,0a7.71,7.71,0,1,1-4.41,14.78Z" fill="#804a97"/><path d="M543.61,474.59l-.1,0a7.71,7.71,0,1,1,4.41-14.78l.1,0a7.71,7.71,0,0,1-4.41,14.78Z" fill="#804a97"/><path d="M747.1,267.28l-.1,0a7.71,7.71,0,1,1,4.41-14.78l.1,0a7.71,7.71,0,0,1-4.41,14.78Z" fill="#804a97"/><path d="M575.74,247.41l-.1,0a7.71,7.71,0,0,1,4.41-14.78l.1,0a7.71,7.71,0,1,1-4.41,14.78Z" fill="#804a97"/></g><g id="Layer_1" data-name="Layer 1"><path d="M288.92,582.59c8.46,17.12,10,40.68-21.1,64.11C208.57,691.4,8.7,583.43,8.7,583.43" fill="#f28e1d"/><path d="M288.92,584.76c8.46-17.12,10-40.69-21.1-64.11C208.57,476,8.7,583.92,8.7,583.92" fill="#f28e1d"/><path d="M283.29,581.28c6,12.12,7,28.8-14.93,45.38C226.42,658.29,85,581.88,85,581.88" fill="#eb5f44"/><path d="M283.29,582.82c6-12.12,7-28.8-14.93-45.38C226.42,505.81,85,582.23,85,582.23" fill="#eb5f44"/><path d="M356,394H279.73A17.72,17.72,0,0,1,262,376.24V342a17.73,17.73,0,0,1,17.72-17.72H356Z" fill="#a8add4"/><path d="M296.28,394H279.73A17.72,17.72,0,0,1,262,376.24V342a17.73,17.73,0,0,1,17.72-17.72h16.55Z" fill="#232e5a"/><path d="M356,856.69H279.73A17.72,17.72,0,0,1,262,839V804.69A17.72,17.72,0,0,1,279.73,787H356Z" fill="#a8add4"/><path d="M296.28,856.69H279.73A17.73,17.73,0,0,1,262,839V804.69A17.72,17.72,0,0,1,279.73,787h16.55Z" fill="#232e5a"/><path d="M356,654H279.73A17.73,17.73,0,0,1,262,636.26V531.08a17.72,17.72,0,0,1,17.73-17.73H356Z" fill="#898ec5"/><path d="M356,569.86v27.62H262V569.86Z" fill="#6164ab"/><path d="M296.27,654H279.73A17.73,17.73,0,0,1,262,636.26V531.08a17.73,17.73,0,0,1,17.73-17.73h16.54Z" fill="#232e5a"/><path d="M296.27,569.86v27.62H262V569.86Z" fill="#2c2664"/><path d="M337.88,876.09V660.89H584.79c-5.2,8.08-13.12,20.94-23.76,34.56-17.67,22.64-42.83,47.37-75.29,55.84A38.69,38.69,0,0,0,458,780.56c-7.14,32.25-26,85.23-74.88,105.93a106,106,0,0,1-24.84,7.11A17.68,17.68,0,0,1,337.88,876.09Z" fill="#898ec5"/><path d="M561,695.45H337.88V660.89H584.79C579.59,669,571.67,681.83,561,695.45Z" fill="#6164ab"/><path d="M337.88,876.09V660.89h45.26V886.5a106.29,106.29,0,0,1-24.83,7.1A17.68,17.68,0,0,1,337.88,876.09Z" fill="#804a97"/><path d="M383.14,660.89v34.56H337.88V660.89Z" fill="#232e5a"/><path d="M584.79,506.45H337.88V291.26a17.69,17.69,0,0,1,20.43-17.52,106.52,106.52,0,0,1,24.84,7.11C432,301.55,450.89,354.53,458,386.78a38.69,38.69,0,0,0,27.71,29.27c32.47,8.47,57.62,33.2,75.29,55.84C571.67,485.51,579.59,498.38,584.79,506.45Z" fill="#898ec5"/><path d="M561,471.89c10.64,13.62,18.56,26.49,23.76,34.56H337.88V471.89Z" fill="#6164ab"/><path d="M383.14,506.45H337.88V291.26a17.69,17.69,0,0,1,20.43-17.52,106.29,106.29,0,0,1,24.83,7.11Z" fill="#804a97"/><path d="M383.14,471.89v34.56H337.88V471.89Z" fill="#232e5a"/><path d="M748.31,674.17H337.88v-181H748.31a207.59,207.59,0,0,1,163.45,79.57,17.74,17.74,0,0,1,0,21.87,207.52,207.52,0,0,1-163.45,79.56Z" fill="#a8add4"/><path d="M748.32,674.17H337.88V633.66H748.32A207.61,207.61,0,0,0,904,563.42q4,4.53,7.77,9.31a17.72,17.72,0,0,1,0,21.88,207.68,207.68,0,0,1-163.44,79.56Z" fill="#898ec5"/><path d="M746.17,632a13.75,13.75,0,0,1,3-8.56,64.09,64.09,0,0,0,0-79.61,13.82,13.82,0,1,1,21.66-17.16,91.76,91.76,0,0,1,0,113.92A13.82,13.82,0,0,1,746.17,632Z" fill="#31b8c6"/><path d="M421.15,493.17v181H393.53v-181Z" fill="#898ec5"/><path d="M459,493.17v181H431.37v-181Z" fill="#898ec5"/><path d="M482.76,632.15V632a13.89,13.89,0,0,1,13.95-13.77A13.73,13.73,0,0,1,510.39,632v.32a13.82,13.82,0,0,1-27.63-.13Z" fill="#232e5a"/><path d="M520.52,632.15a13.88,13.88,0,0,1,13.81-13.9A13.73,13.73,0,0,1,548.14,632v.19a13.81,13.81,0,0,1-27.62,0Z" fill="#232e5a"/></g></svg>