<svg id="INDBETAL" xmlns="http://www.w3.org/2000/svg" width="305.13" height="190" viewBox="0 0 305.13 190">
  <defs>
    <style>
      .cls-1 {
        fill: #00c2cc;
      }

      .cls-2 {
        font-size: 20.41px;
        font-family: Oswald-Regular, Oswald;
      }

      .cls-3 {
        letter-spacing: 0em;
      }

      .cls-4 {
        letter-spacing: 0em;
      }

      .cls-5 {
        fill: #2c363b;
      }

      .cls-6 {
        fill: #3f4b4f;
      }

      .cls-7 {
        fill: #f2a85f;
      }

      .cls-8 {
        fill: #fd8f07;
      }

      .cls-9 {
        fill: #e89c49;
      }

      .cls-10 {
        fill: #ffd32a;
      }

      .cls-11 {
        fill: #ffeeb8;
      }

      .cls-12 {
        fill: #fcbc77;
      }

      .cls-13 {
        fill: #0c2461;
      }
    </style>
  </defs>
  <title>indbetal</title>
  <g>
    <rect class="cls-1" y="72.62" width="137.7" height="55.38" rx="15.47"/>
    <text class="cls-2" transform="translate(31.38 108.05)">INDBE<tspan class="cls-3" x="45.59" y="0">T</tspan><tspan class="cls-4" x="53.98" y="0">AL</tspan></text>
    <path class="cls-1" d="M1797,148a95.12,95.12,0,0,1-56.32,86.79,92.55,92.55,0,0,1-8.8,3.41A95.08,95.08,0,1,1,1797,148Z" transform="translate(-1491.87 -53)"/>
    <path class="cls-5" d="M1789.82,184.3a95.36,95.36,0,0,1-49.14,50.49v-3.91a14.24,14.24,0,0,1-2.16-7.13q-2.14-77.87,0-155.75a14.17,14.17,0,0,1,2-6.86l.16-.27v-7.8h20.26A65.28,65.28,0,0,1,1778,54.58,14.12,14.12,0,0,1,1789,68q.62,21.91.87,43.84Q1790.31,148.07,1789.82,184.3Z" transform="translate(-1491.87 -53)"/>
    <path class="cls-6" d="M1765.64,218.53a94.71,94.71,0,0,1-33.76,19.67q-2.93-.37-5.85-1a14.14,14.14,0,0,1-11-13.43q-2.14-77.87,0-155.75a14.16,14.16,0,0,1,8.42-12.57,13.1,13.1,0,0,1,2.59-.85,65.12,65.12,0,0,1,28.47,0,14.13,14.13,0,0,1,11,13.42q.13,4.78.25,9.57Q1767.46,148.06,1765.64,218.53Z" transform="translate(-1491.87 -53)"/>
    <path class="cls-5" d="M1749.69,145.88c0,2.81,0,5.62,0,8.44v1.74q0,6.52-.08,13.06c0,.62,0,1.23,0,1.85,0,.38,0,.76,0,1.13q0,4.78-.1,9.58c0,1.64,0,3.27-.07,4.91l-.06,4.11q-.18,10.94-.44,21.85c0,1.56-.07,3.12-.11,4.67,0,1.3-.06,2.6-.1,3.9a47.58,47.58,0,0,1-16.83,0l-.09-3.16c0-1.56-.07-3.11-.11-4.66,0-1.09-.05-2.19-.07-3.28s-.06-2.27-.08-3.4c0-2-.09-3.91-.12-5.87v-.12c0-.88,0-1.77-.05-2.65q-.06-2.49-.09-5c-.27-15.74-.4-31.5-.4-47.12q0-9.36.06-18.76.09-12,.27-24.05c0-1.64,0-3.28.08-4.92,0-.94,0-1.89,0-2.83v-.11c0-2,.07-3.92.11-5.88,0-1.14,0-2.27.07-3.4.06-2.49.11-5,.17-7.47,0-1.55.08-3.11.11-4.66l.09-3.16a47.12,47.12,0,0,1,16.83,0c0,1.29.07,2.6.1,3.9,0,1.55.08,3.11.11,4.67.21,8.7.38,17.44.5,26.17,0,1.07,0,2.13,0,3.2,0,.26,0,.53,0,.8l.06,5,.09,9.48v1.17c0,.61,0,1.22,0,1.82,0,4.36.05,8.72.06,13.06,0,.59,0,1.17,0,1.75C1749.69,143.08,1749.69,144.48,1749.69,145.88Z" transform="translate(-1491.87 -53)"/>
    <path class="cls-7" d="M1676.65,79.32l-.05-.06h.07A.14.14,0,0,0,1676.65,79.32Z" transform="translate(-1491.87 -53)"/>
    <path class="cls-8" d="M1749.69,145.88c0,2.81,0,5.62,0,8.44v1.74q0,6.52-.08,13.06c0,.62,0,1.23,0,1.85a4.67,4.67,0,0,1-2.07.66c-.68,1.86-1.45,3.69-2.28,5.48a4.77,4.77,0,0,1,.53,5.5l-1.55,2.68a4.75,4.75,0,0,1-5,2.3q-1.71,2.43-3.61,4.69a4.77,4.77,0,0,1-.91,5.47l-2.19,2.19a4.58,4.58,0,0,1-1.07.81,4.81,4.81,0,0,1-4.4.1c-1.51,1.26-3.08,2.47-4.69,3.61a4.77,4.77,0,0,1-2.29,5l-2.69,1.55a4.77,4.77,0,0,1-5.5-.53c-1.79.83-3.62,1.6-5.48,2.28-.15,2-4.46,1.92-6.48,2.46l0,2.6a4.78,4.78,0,0,1-5.19-1.94c-1.93.34-1.86-.71-3.84-.54-.64,1.88,4.93,4.53,2.84,4.53h-12.48a4.75,4.75,0,0,1-4.5-3.23c-2-.17,1.61,1-.32.71-1.11,1.64-8.73,1-10.74.47l-3-.8a4.79,4.79,0,0,1-3.52-4.26c-1.86-.68-3.69-1.45-5.48-2.28a4.77,4.77,0,0,1-5.5.53l-2.68-1.55a4.79,4.79,0,0,1-2.3-5c-1.62-1.14-3.18-2.35-4.69-3.61a4.77,4.77,0,0,1-5.47-.91l-2.19-2.19a4.77,4.77,0,0,1-.91-5.47c-1.26-1.51-2.47-3.07-3.61-4.69a4.76,4.76,0,0,1-5-2.3l-1.55-2.68a4.77,4.77,0,0,1,.53-5.5q-1.25-2.69-2.28-5.48a4.8,4.8,0,0,1-4.26-3.52l-.8-3a4.78,4.78,0,0,1,1.94-5.19c-.33-1.93-.59-3.89-.76-5.87a4.78,4.78,0,0,1-3.23-4.51v-3.1a4.78,4.78,0,0,1,3.23-4.51c.17-2,.43-3.94.76-5.87a4.78,4.78,0,0,1-1.94-5.19l.8-3a4.8,4.8,0,0,1,4.26-3.52c.69-1.86,1.45-3.69,2.28-5.47a4.79,4.79,0,0,1-.53-5.51l1.55-2.68a4.76,4.76,0,0,1,5-2.3c1.14-1.62,2.35-3.18,3.61-4.69a4.77,4.77,0,0,1,.91-5.47l2.19-2.19a4.77,4.77,0,0,1,5.47-.91c1.51-1.26,3.07-2.47,4.69-3.61a4.79,4.79,0,0,1,2.3-5l2.68-1.55a4.77,4.77,0,0,1,5.5.53c1.79-.83,3.62-1.6,5.48-2.28a4.79,4.79,0,0,1,3.52-4.26l3-.8c2-.53,9.76-.46,11,1.12-.48.06-.93.14.05.06s.49-.13,0-.07a4.76,4.76,0,0,1,4.48-3.16h12.48c2.09,0-3.52,4.77-2.87,6.65,2,.17,1.94-3,3.87-2.66a4.78,4.78,0,0,1,5.19-1.94l-.72,5.23c2,.54,7.08-2.13,7.23-.17,1.86.68,3.69,1.45,5.48,2.28a4.77,4.77,0,0,1,5.5-.53L1720,86.5a4.77,4.77,0,0,1,2.29,5c1.61,1.14,3.18,2.35,4.69,3.61a4.8,4.8,0,0,1,4.32.06,4.89,4.89,0,0,1,1.15.85l2.19,2.19a4.77,4.77,0,0,1,.91,5.47q1.9,2.27,3.61,4.69a4.75,4.75,0,0,1,5,2.3l1.55,2.68a4.79,4.79,0,0,1-.53,5.51c.83,1.78,1.6,3.61,2.28,5.47a4.69,4.69,0,0,1,2.1.68c0,.61,0,1.22,0,1.82,0,4.36.05,8.72.06,13.06,0,.59,0,1.17,0,1.75C1749.69,143.08,1749.69,144.48,1749.69,145.88Z" transform="translate(-1491.87 -53)"/>
    <path class="cls-9" d="M1749.67,154.32h-6.51l6.51,1.74q0,6.52-.08,13.06l-9.69-2.6,9.66,5.58q0,4.78-.1,9.58c0,1.64,0,3.27-.07,4.91l-15.81-9.12L1747.12,191a4.77,4.77,0,0,1,0,6.74l-2.19,2.19a4.77,4.77,0,0,1-6.74,0l-7-6.94-6.6-6.6,6.69,11.58,2.89,5a4.77,4.77,0,0,1-1.75,6.52l-.89.52-1.79,1a4.76,4.76,0,0,1-6.51-1.75l-9.58-16.58,5,18.5a4.77,4.77,0,0,1-3.38,5.84l-3,.8a4.77,4.77,0,0,1-5.84-3.37l-5-18.51v19.16a4.78,4.78,0,0,1-4.77,4.77h-3.1a4.78,4.78,0,0,1-4.77-4.77V196l-5,18.5a4.77,4.77,0,0,1-5.84,3.37l-3-.8a4.77,4.77,0,0,1-3.37-5.84l5-18.5-9.58,16.58a4.77,4.77,0,0,1-6.51,1.75l-2.69-1.55a4.77,4.77,0,0,1-1.74-6.52l9.57-16.58-13.54,13.54a4.77,4.77,0,0,1-6.74,0l-2.19-2.19a4.75,4.75,0,0,1,0-6.74l13.54-13.54L1640.19,187a4.76,4.76,0,0,1-6.51-1.75l-1.55-2.68a4.76,4.76,0,0,1,1.75-6.51l16.58-9.58-18.5,5a4.77,4.77,0,0,1-5.84-3.37l-.8-3a4.77,4.77,0,0,1,3.37-5.84l18.5-5H1628a4.78,4.78,0,0,1-4.77-4.77v-3.1a4.78,4.78,0,0,1,4.77-4.77h19.15l-18.5-5a4.76,4.76,0,0,1-3.37-5.84l.8-3a4.77,4.77,0,0,1,5.84-3.37l18.5,5-16.58-9.58a4.76,4.76,0,0,1-1.75-6.51l1.55-2.68a4.76,4.76,0,0,1,6.51-1.75l16.59,9.57L1643.24,105a4.75,4.75,0,0,1,0-6.74l2.19-2.19a4.77,4.77,0,0,1,6.74,0l13.54,13.54L1656.14,93a4.77,4.77,0,0,1,1.74-6.52l2.69-1.55a4.78,4.78,0,0,1,6.51,1.75l9.58,16.58-5-18.5a4.77,4.77,0,0,1,3.37-5.84l3-.8a4.77,4.77,0,0,1,5.84,3.37l5,18.51V80.86a4.78,4.78,0,0,1,4.77-4.77h3.1a4.78,4.78,0,0,1,4.77,4.77V100l5-18.51a4.77,4.77,0,0,1,5.84-3.37l3,.8a4.77,4.77,0,0,1,3.38,5.84l-5,18.5,9.58-16.58a4.77,4.77,0,0,1,6.51-1.75l1.69,1,1,.57a4.77,4.77,0,0,1,1.75,6.52l-3,5.13-6.61,11.45,6.53-6.53,7-7a4.77,4.77,0,0,1,6.74,0l2.19,2.19a4.77,4.77,0,0,1,0,6.74l-13.55,13.54,15.88-9.15.06,5,.09,9.48-9.7,5.6,9.72-2.61c0,4.36.05,8.72.06,13.06l-6.52,1.75h6.52c0,1.4,0,2.8,0,4.2C1749.69,148.69,1749.69,151.5,1749.67,154.32Z" transform="translate(-1491.87 -53)"/>
    <path class="cls-9" d="M1749.69,145.88c0,11.88-.08,23.84-.23,35.8,0,3-.08,6-.13,9a70.77,70.77,0,0,1-7.65,8.21,69.65,69.65,0,0,1-10.18,7.71,68.92,68.92,0,1,1,17.89-101.24c0,1.07,0,2.13,0,3.2,0,1.94,0,3.88.07,5.82Q1749.69,130.18,1749.69,145.88Z" transform="translate(-1491.87 -53)"/>
    <path class="cls-10" d="M1749.69,145.88c0,11.88-.08,23.84-.23,35.8a63.87,63.87,0,1,1-54.28-97.55,63.54,63.54,0,0,1,36.12,11.19,64.23,64.23,0,0,1,18.21,19.08Q1749.69,130.18,1749.69,145.88Z" transform="translate(-1491.87 -53)"/>
    <path class="cls-9" d="M1748.49,148a53.31,53.31,0,1,1-53.31-53.31A53.31,53.31,0,0,1,1748.49,148Z" transform="translate(-1491.87 -53)"/>
    <path class="cls-10" d="M1741.12,148a45.38,45.38,0,0,1-.49,6.73,46,46,0,0,1-38.73,38.73,46.52,46.52,0,0,1-6.72.49,45.82,45.82,0,0,1-30.5-11.59A45.84,45.84,0,0,1,1649.23,148a1.77,1.77,0,0,1,0-.23A45.93,45.93,0,0,1,1695,102.06h.23a45.68,45.68,0,0,1,27.13,8.87A46,46,0,0,1,1741.12,148Z" transform="translate(-1491.87 -53)"/>
    <g>
      <path class="cls-11" d="M1722.31,110.92l-64.22,64.21a45.76,45.76,0,0,1-8.86-27.13,1.77,1.77,0,0,1,0-.23L1695,102.06h.23A45.68,45.68,0,0,1,1722.31,110.92Z" transform="translate(-1491.87 -53)"/>
      <path class="cls-11" d="M1736.74,128.42l-61.15,61.15a45.41,45.41,0,0,1-10.91-7.21l64.86-64.85A45.18,45.18,0,0,1,1736.74,128.42Z" transform="translate(-1491.87 -53)"/>
      <path class="cls-11" d="M1740.63,154.73a46,46,0,0,1-38.73,38.73Z" transform="translate(-1491.87 -53)"/>
    </g>
    <path class="cls-8" d="M1712.21,173.77c-8.37,6.07-18.3,7-21.68,2.68-1.79-2.31-2.39-7.29.19-9.3,2.85-2.21,8.28,0,14-3l-8.55-11c-8.1,2.48-17.7,5.26-24.46-3.44s-3.54-17.73,2.87-24.35l-1.48-1.9c-.74-1-.33-2.68,1.16-3.84,1.29-1,3.27-1.12,4-.17l1.32,1.7c4.31-3.14,13.11-8.23,16.75-3.54,1.42,1.83,3.11,6.52.12,8.84-2.25,1.75-5.23.57-9.91,3.67l7.71,9.92c8-2.5,17.66-4.9,24.79,4.27,6.54,8.43,5.06,17.74-1.88,25.21l1.53,2c.74.95.13,2.84-1.16,3.84-1.49,1.16-3.27,1.12-4,.17Zm-23.71-31.91-6.28-8.09c-2.58,3-2.66,5.56-1.39,7.19C1682.36,142.93,1685.07,142.78,1688.5,141.86Zm13.57,9.61,7.07,9.11c1.89-2.34,2.72-5.06.82-7.51C1708.22,150.83,1705.41,150.73,1702.07,151.47Z" transform="translate(-1491.87 -53)"/>
    <path class="cls-12" d="M1749.69,145.88c0,11.88-.08,23.84-.23,35.8,0,3-.08,6-.13,9a70.77,70.77,0,0,1-7.65,8.21V97.09a68.76,68.76,0,0,1,7.71,8.29c0,1.07,0,2.13,0,3.2,0,1.94,0,3.88.07,5.82Q1749.69,130.18,1749.69,145.88Z" transform="translate(-1491.87 -53)"/>
    <path class="cls-13" d="M1672.31,237V214.32H1634a95.19,95.19,0,0,1-19.68-29.75h58V161.93l34.19,37.52Z" transform="translate(-1491.87 -53)"/>
  </g>
</svg>
