<svg id="Layer_1" data-name="Layer 1" xmlns="http://www.w3.org/2000/svg" width="359.16" height="233.21" viewBox="0 0 359.16 233.21">
  <defs>
    <style>
      .cls-1 {
        fill: #00c2cc;
      }

      .cls-2 {
        fill: #2c363b;
      }

      .cls-3 {
        fill: #3f4b4f;
      }

      .cls-4 {
        fill: #f2a85f;
      }

      .cls-5 {
        fill: #fd8f07;
      }

      .cls-6 {
        fill: #e89c49;
      }

      .cls-7 {
        fill: #ffd32a;
      }

      .cls-8 {
        fill: #ffeeb8;
      }

      .cls-9 {
        fill: #0c2461;
      }

      .cls-10 {
        font-size: 20.41px;
        font-family: Oswald-Regular, Oswald;
      }

      .cls-11 {
        letter-spacing: 0em;
      }

      .cls-12 {
        letter-spacing: 0em;
      }
    </style>
  </defs>
  <title>indbetal</title>
  <g>
    <rect class="cls-1" y="81.24" width="175.07" height="70.41" rx="15.47"/>
    <path class="cls-1" d="M372.11,138.33A116.73,116.73,0,0,1,303,244.86a114.55,114.55,0,0,1-10.81,4.19,116.74,116.74,0,1,1,79.93-110.72Z" transform="translate(-12.95 -21.73)"/>
    <path class="cls-2" d="M363.3,182.88a117,117,0,0,1-60.31,62v-4.8a17.38,17.38,0,0,1-2.65-8.75q-2.64-95.58,0-191.17a17.16,17.16,0,0,1,2.46-8.42c.06-.11.12-.22.19-.33V21.82h24.86a79.85,79.85,0,0,1,20.94,1.85A17.34,17.34,0,0,1,362.3,40.14Q363,67.05,363.37,94,363.9,138.41,363.3,182.88Z" transform="translate(-12.95 -21.73)"/>
    <path class="cls-3" d="M333.63,224.9a116.36,116.36,0,0,1-41.45,24.15c-2.39-.31-4.79-.73-7.18-1.26a17.36,17.36,0,0,1-13.51-16.48q-2.62-95.58,0-191.17a17.38,17.38,0,0,1,10.33-15.43,16.91,16.91,0,0,1,3.18-1,79.88,79.88,0,0,1,34.95,0,17.33,17.33,0,0,1,13.5,16.47q.17,5.88.31,11.74Q335.85,138.4,333.63,224.9Z" transform="translate(-12.95 -21.73)"/>
    <path class="cls-2" d="M314.05,135.73c0,3.44,0,6.9,0,10.36,0,.71,0,1.42,0,2.14q0,8-.1,16c0,.75,0,1.51,0,2.27,0,.46,0,.93,0,1.39,0,3.91-.08,7.83-.13,11.75q0,3-.09,6c0,1.68,0,3.36-.07,5q-.21,13.42-.53,26.82c-.05,1.91-.1,3.83-.14,5.74l-.12,4.78a58.35,58.35,0,0,1-20.67,0c0-1.29-.07-2.58-.1-3.88,0-1.91-.09-3.81-.13-5.72,0-1.34-.07-2.68-.1-4l-.09-4.17-.15-7.2v-.15c0-1.08-.05-2.17-.06-3.25q-.06-3.06-.11-6.12c-.33-19.31-.49-38.66-.49-57.83q0-11.49.08-23,.09-14.73.33-29.51c0-2,.06-4,.1-6,0-1.16,0-2.32.05-3.48v-.13c0-2.41.09-4.82.14-7.22l.09-4.17q.09-4.59.21-9.17c0-1.91.09-3.82.13-5.72,0-1.3.07-2.59.1-3.88a57.89,57.89,0,0,1,20.67,0l.12,4.78c0,1.91.09,3.83.14,5.74q.38,16,.61,32.12l.06,3.93c0,.32,0,.65,0,1,0,2,.05,4.11.07,6.16q.06,5.82.11,11.64c0,.48,0,1,0,1.43,0,.75,0,1.5,0,2.24q.06,8,.08,16v2.15C314.05,132.3,314.05,134,314.05,135.73Z" transform="translate(-12.95 -21.73)"/>
    <path class="cls-4" d="M224.39,54a.19.19,0,0,0-.06-.07h.09Z" transform="translate(-12.95 -21.73)"/>
    <path class="cls-5" d="M314.05,135.73c0,3.44,0,6.9,0,10.36,0,.71,0,1.42,0,2.14q0,8-.1,16c0,.75,0,1.51,0,2.27a5.66,5.66,0,0,1-2.55.8c-.83,2.29-1.77,4.54-2.79,6.73a5.85,5.85,0,0,1,.65,6.76l-1.9,3.29a5.87,5.87,0,0,1-6.19,2.82q-2.1,3-4.43,5.75a5.87,5.87,0,0,1-1.11,6.72l-2.69,2.69a5.84,5.84,0,0,1-6.71,1.11q-2.79,2.33-5.77,4.43a5.85,5.85,0,0,1-2.81,6.19l-3.29,1.9a5.85,5.85,0,0,1-6.76-.65c-2.2,1-4.44,2-6.73,2.8-.17,2.41-5.47,2.35-7.95,3l0,3.2a5.86,5.86,0,0,1-6.36-2.38c-2.37.41-2.29-.87-4.72-.66-.79,2.3,6.06,5.55,3.49,5.55H229.93a5.85,5.85,0,0,1-5.54-4c-2.44-.21,2,1.29-.39.88-1.36,2-10.71,1.23-13.18.57l-3.68-1a5.85,5.85,0,0,1-4.31-5.23c-2.29-.84-4.54-1.78-6.73-2.8a5.86,5.86,0,0,1-6.76.65l-3.29-1.9a5.87,5.87,0,0,1-2.82-6.19q-3-2.1-5.76-4.43a5.86,5.86,0,0,1-6.71-1.11l-2.69-2.69a5.86,5.86,0,0,1-1.11-6.72q-2.34-2.77-4.43-5.75a5.87,5.87,0,0,1-6.19-2.82l-1.9-3.29a5.85,5.85,0,0,1,.65-6.76c-1-2.19-2-4.44-2.8-6.73a5.86,5.86,0,0,1-5.23-4.32l-1-3.67a5.86,5.86,0,0,1,2.38-6.36c-.41-2.37-.73-4.78-.94-7.21a5.86,5.86,0,0,1-4-5.54v-3.8a5.85,5.85,0,0,1,4-5.53c.21-2.43.53-4.84.94-7.21a5.86,5.86,0,0,1-2.38-6.36l1-3.67a5.85,5.85,0,0,1,5.23-4.32c.84-2.29,1.78-4.54,2.8-6.73a5.86,5.86,0,0,1-.65-6.76l1.9-3.29a5.85,5.85,0,0,1,6.19-2.81q2.08-3,4.43-5.77a5.84,5.84,0,0,1,1.11-6.71l2.69-2.69a5.84,5.84,0,0,1,6.71-1.11q2.79-2.34,5.76-4.43a5.86,5.86,0,0,1,2.82-6.19l3.29-1.9a5.86,5.86,0,0,1,6.76.65c2.19-1,4.44-2,6.73-2.8a5.83,5.83,0,0,1,4.31-5.22l3.68-1c2.44-.66,12-.57,13.51,1.37-.59.08-1.14.18.06.07s.61-.15,0-.08a5.85,5.85,0,0,1,5.51-3.88h15.31c2.57,0-4.32,5.86-3.53,8.16,2.44.21,2.39-3.67,4.76-3.26a5.85,5.85,0,0,1,6.36-2.38L252,59c2.47.66,8.7-2.62,8.87-.21,2.29.84,4.53,1.78,6.73,2.8a5.85,5.85,0,0,1,6.76-.65l3.29,1.9A5.84,5.84,0,0,1,280.41,69q3,2.08,5.77,4.43a5.84,5.84,0,0,1,5.29.07,5.63,5.63,0,0,1,1.42,1l2.69,2.69A5.86,5.86,0,0,1,296.69,84q2.32,2.79,4.43,5.77a5.85,5.85,0,0,1,6.19,2.81l1.9,3.29a5.86,5.86,0,0,1-.65,6.76c1,2.19,2,4.44,2.79,6.73a5.72,5.72,0,0,1,2.59.82c0,.75,0,1.5,0,2.24q.06,8,.08,16v2.15C314.05,132.3,314.05,134,314.05,135.73Z" transform="translate(-12.95 -21.73)"/>
    <path class="cls-6" d="M314,146.09h-8l8,2.14q0,8-.1,16L302,161.07l11.87,6.85c0,3.91-.08,7.83-.13,11.75q0,3-.09,6l-19.4-11.2,16.62,16.62a5.85,5.85,0,0,1,0,8.28l-2.68,2.69a5.87,5.87,0,0,1-8.28,0l-8.53-8.53-8.1-8.1,8.21,14.22,3.55,6.14a5.86,5.86,0,0,1-2.15,8l-1.1.63-2.19,1.27a5.85,5.85,0,0,1-8-2.14l-11.75-20.36,6.09,22.7a5.87,5.87,0,0,1-4.14,7.18l-3.67,1a5.86,5.86,0,0,1-7.17-4.14l-6.09-22.71v23.51a5.85,5.85,0,0,1-5.85,5.85h-3.8a5.86,5.86,0,0,1-5.86-5.85V197.23l-6.08,22.71a5.87,5.87,0,0,1-7.17,4.14l-3.67-1a5.86,5.86,0,0,1-4.14-7.18l6.09-22.7-11.76,20.36a5.85,5.85,0,0,1-8,2.14l-3.29-1.9a5.85,5.85,0,0,1-2.14-8L211,185.46l-16.62,16.63a5.87,5.87,0,0,1-8.28,0l-2.69-2.69a5.87,5.87,0,0,1,0-8.28L200,174.5l-20.36,11.75a5.85,5.85,0,0,1-8-2.14l-1.9-3.29a5.87,5.87,0,0,1,2.15-8l20.35-11.75-22.7,6.08a5.84,5.84,0,0,1-7.17-4.14l-1-3.67a5.85,5.85,0,0,1,4.13-7.17l22.71-6.08H164.73a5.85,5.85,0,0,1-5.85-5.86v-3.8a5.85,5.85,0,0,1,5.85-5.85h23.51l-22.71-6.09a5.84,5.84,0,0,1-4.13-7.16l1-3.67a5.84,5.84,0,0,1,7.17-4.14l22.7,6.08L171.9,103.85a5.87,5.87,0,0,1-2.15-8l1.9-3.29a5.85,5.85,0,0,1,8-2.14L200,102.17,183.38,85.55a5.87,5.87,0,0,1,0-8.28l2.69-2.69a5.85,5.85,0,0,1,8.28,0L211,91.2,199.22,70.85a5.85,5.85,0,0,1,2.14-8l3.29-1.9a5.85,5.85,0,0,1,8,2.14l11.76,20.36-6.09-22.71a5.84,5.84,0,0,1,4.14-7.16l3.67-1a5.85,5.85,0,0,1,7.17,4.14l6.08,22.71V55.93a5.86,5.86,0,0,1,5.86-5.86H249a5.85,5.85,0,0,1,5.85,5.86V79.44L261,56.73a5.84,5.84,0,0,1,7.17-4.14l3.67,1A5.85,5.85,0,0,1,276,60.74l-6.09,22.71,11.75-20.36a5.85,5.85,0,0,1,8-2.14l2.08,1.2,1.21.7a5.85,5.85,0,0,1,2.15,8l-3.64,6.3-8.12,14,8-8,8.61-8.61a5.85,5.85,0,0,1,8.28,0l2.68,2.69a5.85,5.85,0,0,1,0,8.28l-16.62,16.62,19.48-11.24c0,2,.05,4.11.07,6.16q.06,5.82.11,11.64L302,115.6,314,112.4q.06,8,.08,16l-8,2.15h8c0,1.72,0,3.44,0,5.15C314.05,139.17,314,142.63,314,146.09Z" transform="translate(-12.95 -21.73)"/>
    <path class="cls-6" d="M314.05,135.73c0,14.58-.1,29.26-.29,43.94q-.08,5.54-.16,11.07A84.56,84.56,0,1,1,313.68,86l.06,3.93q0,3.57.08,7.14Q314,116.47,314.05,135.73Z" transform="translate(-12.95 -21.73)"/>
    <path class="cls-7" d="M314.05,135.73c0,14.58-.1,29.26-.29,43.94a78.76,78.76,0,0,1-22.19,23.26A78.39,78.39,0,1,1,313.82,97.09Q314,116.47,314.05,135.73Z" transform="translate(-12.95 -21.73)"/>
    <path class="cls-6" d="M312.57,138.33A65.43,65.43,0,1,1,247.14,72.9,65.43,65.43,0,0,1,312.57,138.33Z" transform="translate(-12.95 -21.73)"/>
    <path class="cls-7" d="M303.53,138.34a56.38,56.38,0,0,1-93.82,42.17,56.82,56.82,0,0,1-8.09-8.88,56.11,56.11,0,0,1-10.88-33.29,2.81,2.81,0,0,1,0-.29,56.39,56.39,0,0,1,56.11-56.11h.28a56.06,56.06,0,0,1,33.3,10.89,56.87,56.87,0,0,1,17.72,21.48A56,56,0,0,1,303.53,138.34Z" transform="translate(-12.95 -21.73)"/>
    <g>
      <path class="cls-8" d="M280.44,92.82l-78.82,78.81a56.11,56.11,0,0,1-10.88-33.29,2.81,2.81,0,0,1,0-.29l56.11-56.11h.28A56.13,56.13,0,0,1,280.44,92.82Z" transform="translate(-12.95 -21.73)"/>
      <path class="cls-8" d="M298.16,114.3,223.1,189.35a55.75,55.75,0,0,1-13.39-8.84l79.6-79.6A55.59,55.59,0,0,1,298.16,114.3Z" transform="translate(-12.95 -21.73)"/>
      <path class="cls-8" d="M302.93,146.59a56.44,56.44,0,0,1-47.54,47.54Z" transform="translate(-12.95 -21.73)"/>
    </g>
    <path class="cls-5" d="M268,170c-10.27,7.44-22.46,8.62-26.6,3.28-2.21-2.83-2.94-8.95.23-11.41,3.5-2.72,10.16,0,17.17-3.71l-10.5-13.51c-9.94,3-21.73,6.45-30-4.22s-4.34-21.77,3.52-29.89L220,108.18c-.91-1.17-.41-3.29,1.42-4.72,1.59-1.23,4-1.37,4.92-.21l1.62,2.09c5.3-3.85,16.09-10.1,20.56-4.34,1.75,2.25,3.81,8,.14,10.85-2.75,2.14-6.41.7-12.15,4.5L246,128.52c9.79-3.06,21.68-6,30.42,5.25,8,10.34,6.22,21.78-2.3,30.94l1.88,2.42c.9,1.17.16,3.48-1.42,4.71-1.84,1.43-4,1.38-4.92.21Zm-29.1-39.18-7.71-9.92c-3.17,3.67-3.26,6.82-1.71,8.82C231.4,132.11,234.74,131.92,238.94,130.79Zm16.66,11.8,8.68,11.18c2.31-2.87,3.34-6.21,1-9.21C263.15,141.81,259.7,141.68,255.6,142.59Z" transform="translate(-12.95 -21.73)"/>
    <path class="cls-9" d="M219.07,247.53V219.74H172a116.82,116.82,0,0,1-24.15-36.52h71.2V155.43l42,46Z" transform="translate(-12.95 -21.73)"/>
    <text class="cls-10" transform="translate(28.75 124.68)">INDBE<tspan class="cls-11" x="45.59" y="0">T</tspan><tspan class="cls-12" x="53.98" y="0">AL</tspan></text>
  </g>
</svg>
