<svg id="Layer_1" data-name="Layer 1" xmlns="http://www.w3.org/2000/svg" width="321.36" height="232.21" viewBox="0 0 321.36 232.21">
  <defs>
    <style>
      .cls-1 {
        fill: #ff5c3c;
      }

      .cls-2 {
        fill: #05c46b;
      }

      .cls-3 {
        fill: #77d9a5;
      }

      .cls-4 {
        fill: #36b990;
      }

      .cls-5 {
        fill: #00c2cc;
      }

      .cls-6 {
        fill: #ffd32a;
      }

      .cls-7 {
        fill: #0c2461;
      }

      .cls-8 {
        fill: #fd8f07;
      }

      .cls-9 {
        font-size: 20.41px;
        font-family: Oswald-Regular, Oswald;
      }

      .cls-10 {
        letter-spacing: -0.04em;
      }

      .cls-11 {
        letter-spacing: -0.02em;
      }
    </style>
  </defs>
  <title>payout</title>
  <g>
    <rect class="cls-1" y="80.09" width="175.07" height="70.41" rx="15.47"/>
    <g>
      <path class="cls-1" d="M353.08,138.33a116.1,116.1,0,0,1-4.18,31c-.42,1.52-.87,3-1.35,4.51a112.53,112.53,0,0,1-4.82,12.48q-1.65,3.66-3.56,7.17-2.7,5-5.87,9.7c-.83,1.23-1.69,2.44-2.56,3.64-.4.55-.81,1.1-1.22,1.64a116.07,116.07,0,0,1-165.44,20.24q-1.76-1.41-3.45-2.9a116.54,116.54,0,0,1-9.08-8.84c-1.28-1.39-2.52-2.81-3.74-4.26s-2.28-2.8-3.37-4.24h0c-1.72-2.27-3.36-4.6-4.9-7q-1.25-1.87-2.38-3.81a116.11,116.11,0,1,1,215.93-59.33Z" transform="translate(-31.85 -22.23)"/>
      <path class="cls-2" d="M122.06,87.36A237.4,237.4,0,0,0,177,133.69a4.81,4.81,0,0,0,6.67-1.68l15.86-27.21a4.81,4.81,0,0,0-1.63-6.51,196,196,0,0,1-44.49-37.51,4.79,4.79,0,0,0-6.69-.5L122.59,80.51A4.81,4.81,0,0,0,122.06,87.36Z" transform="translate(-31.85 -22.23)"/>
      <g>
        <path class="cls-3" d="M130.94,79.31l13.14-11a7.27,7.27,0,0,0,.92.92,7.53,7.53,0,0,0,9.93-.18A203.27,203.27,0,0,0,171.4,84.59,202.17,202.17,0,0,0,189.53,98.2,7.54,7.54,0,0,0,191,108a6.89,6.89,0,0,0,1.07.75l-8.64,14.82a7.54,7.54,0,0,0-9.56,1.65,8.15,8.15,0,0,0-.61.84,233.22,233.22,0,0,1-22.64-16.86A231.89,231.89,0,0,1,130.2,89.75a10.09,10.09,0,0,0,.72-.74A7.54,7.54,0,0,0,130.94,79.31Z" transform="translate(-31.85 -22.23)"/>
        <path class="cls-3" d="M125.16,84.15l2.43-2a3.18,3.18,0,0,1,0,4.09,3.43,3.43,0,0,1-.33.33Z" transform="translate(-31.85 -22.23)"/>
        <path class="cls-3" d="M147.43,65.49l2.43-2c.7.8,1.4,1.59,2.11,2.37a3.17,3.17,0,0,1-4.16.06A2.79,2.79,0,0,1,147.43,65.49Z" transform="translate(-31.85 -22.23)"/>
        <path class="cls-3" d="M193.19,100.58c.89.57,1.79,1.13,2.69,1.68l-1.6,2.74a3.28,3.28,0,0,1-.45-.31A3.18,3.18,0,0,1,193.19,100.58Z" transform="translate(-31.85 -22.23)"/>
        <path class="cls-3" d="M177.23,128.05a3.17,3.17,0,0,1,4-.69l-1.6,2.74-2.7-1.67A2.47,2.47,0,0,1,177.23,128.05Z" transform="translate(-31.85 -22.23)"/>
      </g>
      <path class="cls-2" d="M151,88.57c-5.23,6.19-5,15,.5,19.6s14.19,3.38,19.41-2.81,5-15-.5-19.61S156.24,82.37,151,88.57Z" transform="translate(-31.85 -22.23)"/>
      <path class="cls-3" d="M153.57,104.49c-2.62-2.37-3.65-5.62-2.43-7.06.64-.76,2.26-1.32,3.12-.6s.59,2.77,2,4.46l3.07-3.64c-1.4-2.53-3-5.54-.59-8.41s5.68-2.45,8.34-.78l.53-.63A1,1,0,0,1,169,88c.43.36.61,1,.34,1.32l-.47.57c1.35,1.22,3.68,3.79,2.37,5.34-.51.61-2,1.5-2.94.67-.75-.62-.57-1.7-1.93-3l-2.77,3.28c1.4,2.49,2.89,5.56.33,8.59-2.35,2.79-5.56,3-8.55,1.17l-.55.65c-.27.31-.94.24-1.37-.12a1,1,0,0,1-.34-1.32Zm9-10.2,2.26-2.67c-1.19-.65-2.05-.49-2.5,0S162,93.21,162.55,94.29Zm-2.25,5.22-2.53,3a1.94,1.94,0,0,0,2.56-.26C161,101.52,160.79,100.57,160.3,99.51Z" transform="translate(-31.85 -22.23)"/>
      <path class="cls-4" d="M181.58,110.41a4.06,4.06,0,1,1-4.06-4A4.05,4.05,0,0,1,181.58,110.41Z" transform="translate(-31.85 -22.23)"/>
      <path class="cls-2" d="M149,82.92a4.06,4.06,0,1,1-4.06-4A4.05,4.05,0,0,1,149,82.92Z" transform="translate(-31.85 -22.23)"/>
      <path class="cls-2" d="M204,96.52A237.21,237.21,0,0,0,263.88,56.8a4.82,4.82,0,0,0,.26-6.87L242.48,27.07a4.8,4.8,0,0,0-6.71-.27A196,196,0,0,1,187.27,59a4.8,4.8,0,0,0-2.36,6.28l12.63,28.85A4.81,4.81,0,0,0,204,96.52Z" transform="translate(-31.85 -22.23)"/>
      <path class="cls-3" d="M198.74,85.74,191.86,70a7.91,7.91,0,0,0,1.14-.62,7.54,7.54,0,0,0,2.61-9.59,201,201,0,0,0,19.57-11.43,202.5,202.5,0,0,0,18.15-13.57,7.52,7.52,0,0,0,9.84,1.32,7.35,7.35,0,0,0,1-.8L256,47.79a7.53,7.53,0,0,0-1.09,9.63,6.37,6.37,0,0,0,.63.82,232.06,232.06,0,0,1-22.54,17,232.43,232.43,0,0,1-24.43,14.14,9,9,0,0,0-.51-.9A7.54,7.54,0,0,0,198.74,85.74Z" transform="translate(-31.85 -22.23)"/>
      <path class="cls-3" d="M201.76,92.65l-1.27-2.91a3.17,3.17,0,0,1,3.91,1.15,2.38,2.38,0,0,1,.23.41C203.68,91.76,202.72,92.2,201.76,92.65Z" transform="translate(-31.85 -22.23)"/>
      <path class="cls-3" d="M190.11,66l-1.28-2.91,2.87-1.36a3.17,3.17,0,0,1-1.11,4A3.87,3.87,0,0,1,190.11,66Z" transform="translate(-31.85 -22.23)"/>
      <path class="cls-3" d="M236.64,32c.8-.7,1.58-1.41,2.37-2.11l2.18,2.3a2.93,2.93,0,0,1-.43.34A3.18,3.18,0,0,1,236.64,32Z" transform="translate(-31.85 -22.23)"/>
      <path class="cls-3" d="M258.52,55A3.17,3.17,0,0,1,259,51l2.18,2.3-2.36,2.12C258.71,55.27,258.61,55.14,258.52,55Z" transform="translate(-31.85 -22.23)"/>
      <path class="cls-4" d="M213.26,69.07c4.47,6.76,13,9,19,5s7.22-12.67,2.75-19.42-13-9-19-5S208.78,62.32,213.26,69.07Z" transform="translate(-31.85 -22.23)"/>
      <path class="cls-3" d="M229.26,71.09c-3,1.85-6.41,1.93-7.45.36-.56-.83-.63-2.55.3-3.16s2.82.21,4.84-.68l-2.63-4c-2.82.64-6.17,1.34-8.25-1.79s-.75-6.14,1.61-8.23l-.46-.68c-.23-.34-.05-.92.49-1.28s1.15-.3,1.37,0l.41.62c1.55-1,4.68-2.47,5.8-.78.44.66.89,2.3-.19,3-.81.53-1.79.06-3.47,1L224,59.13c2.79-.65,6.15-1.22,8.34,2.09,2,3,1.27,6.17-1.29,8.54l.48.71c.22.34,0,1-.5,1.28a1,1,0,0,1-1.37,0ZM222,59.61l-1.93-2.91c-1,.95-1,1.82-.66,2.41S220.81,59.84,222,59.61Zm4.38,3.62,2.17,3.29A2,2,0,0,0,229,64C228.49,63.17,227.53,63.07,226.38,63.23Z" transform="translate(-31.85 -22.23)"/>
      <path class="cls-4" d="M245.73,49.77a4.06,4.06,0,1,1-4-4.05A4.05,4.05,0,0,1,245.73,49.77Z" transform="translate(-31.85 -22.23)"/>
      <path class="cls-4" d="M210.19,73.34a4.06,4.06,0,1,1-4.06-4.06A4.06,4.06,0,0,1,210.19,73.34Z" transform="translate(-31.85 -22.23)"/>
      <path class="cls-2" d="M268.46,165a237.26,237.26,0,0,0,67.83-23.81,4.81,4.81,0,0,0,1.94-6.59l-15.39-27.48a4.8,4.8,0,0,0-6.44-1.91,195.74,195.74,0,0,1-54.9,19.27,4.82,4.82,0,0,0-3.84,5.51q2.59,15.54,5.17,31.07A4.81,4.81,0,0,0,268.46,165Z" transform="translate(-31.85 -22.23)"/>
      <path class="cls-3" d="M266,153.3l-2.82-16.92a6.87,6.87,0,0,0,1.26-.33,7.54,7.54,0,0,0,4.89-8.65,199.16,199.16,0,0,0,21.77-6.28,199.89,199.89,0,0,0,20.93-8.71,7.55,7.55,0,0,0,9.22,3.71,7.9,7.9,0,0,0,1.18-.54l8.38,15a7.54,7.54,0,0,0-3.43,9.07,7.35,7.35,0,0,0,.41.95,232.46,232.46,0,0,1-26,11,232.84,232.84,0,0,1-27.15,7.71,9.27,9.27,0,0,0-.27-1A7.53,7.53,0,0,0,266,153.3Z" transform="translate(-31.85 -22.23)"/>
      <path class="cls-3" d="M267.27,160.73l-.52-3.13a3.18,3.18,0,0,1,3.52,2.08,3.74,3.74,0,0,1,.12.45Q268.83,160.45,267.27,160.73Z" transform="translate(-31.85 -22.23)"/>
      <path class="cls-3" d="M262.51,132.07l-.52-3.13c1-.19,2.08-.4,3.11-.61a3.17,3.17,0,0,1-2.06,3.61A2.56,2.56,0,0,1,262.51,132.07Z" transform="translate(-31.85 -22.23)"/>
      <path class="cls-3" d="M316,110.47c.95-.48,1.89-1,2.82-1.46l1.55,2.76a2.84,2.84,0,0,1-.5.23A3.18,3.18,0,0,1,316,110.47Z" transform="translate(-31.85 -22.23)"/>
      <path class="cls-3" d="M331.54,138.17a3.18,3.18,0,0,1,1.44-3.82l1.55,2.77c-.93.5-1.87,1-2.81,1.48A3.25,3.25,0,0,1,331.54,138.17Z" transform="translate(-31.85 -22.23)"/>
      <path class="cls-4" d="M284.2,140.69c2.68,7.65,10.36,11.91,17.15,9.53s10.12-10.51,7.43-18.15-10.36-11.91-17.14-9.53S281.52,133.05,284.2,140.69Z" transform="translate(-31.85 -22.23)"/>
      <path class="cls-3" d="M299.22,146.58c-3.37,1.06-6.69.29-7.31-1.48-.33-.95,0-2.62,1.07-3s2.68.89,4.86.53l-1.58-4.49c-2.89-.08-6.3-.22-7.55-3.77s.78-6.13,3.57-7.58L292,126c-.14-.39.18-.91.79-1.12s1.18,0,1.32.38l.24.69c1.74-.55,5.14-1.24,5.81.67.26.75.3,2.45-.92,2.88-.92.32-1.75-.38-3.6.11l1.42,4.05c2.85.06,6.25.33,7.56,4.08,1.21,3.43-.28,6.29-3.34,8l.28.8c.14.39-.26.94-.79,1.12a1,1,0,0,1-1.32-.38ZM295,133.67l-1.16-3.3c-1.16.69-1.46,1.51-1.23,2.18S293.79,133.6,295,133.67Zm3.36,4.59,1.3,3.71a2,2,0,0,0,1.08-2.34C300.42,138.72,299.52,138.38,298.36,138.26Z" transform="translate(-31.85 -22.23)"/>
      <path class="cls-2" d="M320.54,129a4.05,4.05,0,1,1-4.05-4.05A4,4,0,0,1,320.54,129Z" transform="translate(-31.85 -22.23)"/>
      <path class="cls-4" d="M280.3,143.08a4.05,4.05,0,1,1-4.05-4.05A4,4,0,0,1,280.3,143.08Z" transform="translate(-31.85 -22.23)"/>
      <path class="cls-2" d="M348.9,169.33c-.42,1.52-.87,3-1.35,4.51a112.53,112.53,0,0,1-4.82,12.48q-1.65,3.66-3.56,7.17-2.7,5-5.87,9.7c-.83,1.23-1.69,2.44-2.56,3.64A237.21,237.21,0,0,1,286,167.12a4.81,4.81,0,0,1,.53-6.85L310.7,140a4.8,4.8,0,0,1,6.69.51A196.3,196.3,0,0,0,348.9,169.33Z" transform="translate(-31.85 -22.23)"/>
      <path class="cls-3" d="M347.55,173.84a112.53,112.53,0,0,1-4.82,12.48q-1.65,3.66-3.56,7.17-2.7,5-5.87,9.7A233.31,233.31,0,0,1,314.6,189a233.36,233.36,0,0,1-20.43-19.48,7.23,7.23,0,0,0,.72-.74,7.53,7.53,0,0,0,0-9.7l13.15-11a8,8,0,0,0,.92.92,7.54,7.54,0,0,0,9.93-.19,201.66,201.66,0,0,0,16.47,15.57Q341.27,169.33,347.55,173.84Z" transform="translate(-31.85 -22.23)"/>
      <path class="cls-3" d="M289.13,163.91l2.43-2a3.16,3.16,0,0,1,0,4.08,3.34,3.34,0,0,1-.32.33C290.52,165.5,289.82,164.71,289.13,163.91Z" transform="translate(-31.85 -22.23)"/>
      <path class="cls-3" d="M311.39,145.26l2.43-2,2.12,2.37a3.17,3.17,0,0,1-4.16,0A4.68,4.68,0,0,1,311.39,145.26Z" transform="translate(-31.85 -22.23)"/>
      <path class="cls-2" d="M315,168.33c-5.22,6.2-5,15,.5,19.61s14.19,3.38,19.42-2.81,5-15-.51-19.61S320.2,162.14,315,168.33Z" transform="translate(-31.85 -22.23)"/>
      <path class="cls-3" d="M332.82,169.6l.47-.56c.27-.32.09-1-.34-1.33a1,1,0,0,0-1.37-.11l-.53.63c-2.66-1.67-5.94-2.09-8.34.77s-.81,5.89.59,8.42l-3.07,3.64c-1.41-1.7-1.06-3.67-2-4.46s-2.47-.17-3.11.6c-1.22,1.43-.19,4.68,2.43,7.05l-.47.56c-.27.32-.15.91.34,1.33s1.1.43,1.36.11l.55-.65c3,1.79,6.21,1.62,8.56-1.16,2.56-3,1.07-6.1-.33-8.59l2.76-3.29c1.37,1.35,1.19,2.43,1.93,3.05,1,.84,2.44-.06,2.95-.66C336.5,173.39,334.17,170.82,332.82,169.6ZM324.3,182a2,2,0,0,1-2.57.26l2.54-3C324.76,180.34,324.93,181.28,324.3,182Zm2.22-8c-.55-1.08-.79-2-.24-2.63s1.31-.7,2.49-.05Z" transform="translate(-31.85 -22.23)"/>
      <path class="cls-2" d="M342.73,186.32q-1.65,3.66-3.56,7.17l-.29-.22a4,4,0,0,1,3.85-7Z" transform="translate(-31.85 -22.23)"/>
      <path class="cls-4" d="M312.94,162.69a4.05,4.05,0,1,1-4.05-4.06A4.05,4.05,0,0,1,312.94,162.69Z" transform="translate(-31.85 -22.23)"/>
      <path class="cls-5" d="M331.47,190.3a81.31,81.31,0,0,1-2,18.17q-1.45,1.92-3,3.77c-1.15,1.4-2.34,2.76-3.55,4.1a117.23,117.23,0,0,1-10.55,10.24q-3.29,2.8-6.75,5.36a116.79,116.79,0,0,1-10.25,6.74q-2,1.14-4,2.21c-1.13.6-2.29,1.19-3.45,1.76-2.09,1-4.22,2-6.39,2.9a116.24,116.24,0,0,1-137.19-37.09,81.24,81.24,0,0,1-1.94-18.16c0-52.18,42.3-117.72,94.49-117.72S331.47,138.12,331.47,190.3Z" transform="translate(-31.85 -22.23)"/>
      <path class="cls-6" d="M234,205.22c-13.22-.44-24-7.27-24-14.32,0-3.75,3.3-9.26,7.49-9.26,4.63,0,8.37,6.5,16.53,7.94V171.73c-10.14-3.86-22-8.6-22-22.7s10.36-20.72,22-22.37v-3.09c0-1.54,1.76-3,4.18-3,2.1,0,4.19,1.43,4.19,3v2.76c6.83.22,19.73,2,19.73,9.59,0,3-2,9-6.84,9-3.63,0-5.73-3.53-12.89-4.08V157c10,3.75,21.71,8.93,21.71,23.8,0,13.66-8.82,21.93-21.71,24V208c0,1.54-2.09,3-4.19,3-2.42,0-4.18-1.43-4.18-3Zm1.1-50.9V141.2c-5,1-7.05,3.53-7.05,6.18C228,150.57,230.86,152.55,235.05,154.32Zm6.17,20.38v14.77c3.75-.89,6.72-3,6.72-6.95C247.94,178.89,245.19,176.57,241.22,174.7Z" transform="translate(-31.85 -22.23)"/>
      <path class="cls-5" d="M265.74,62.4c3.18-8.8,51.85-39.7-28.76-39.7S205,53.6,208.22,62.4" transform="translate(-31.85 -22.23)"/>
      <path class="cls-7" d="M187.86,190.3c0,30.33,7.42,49.47,19,60.18a116.16,116.16,0,0,1-62.39-42,80.73,80.73,0,0,1-1.95-18.17c0-52.18,42.3-117.72,94.49-117.72C209.85,72.58,187.86,138.12,187.86,190.3Z" transform="translate(-31.85 -22.23)"/>
      <path class="cls-7" d="M222,62.41H208.22c-3.17-8.77-51.51-39.49,27.89-39.7C195.42,23.13,220.38,53.67,222,62.41Z" transform="translate(-31.85 -22.23)"/>
      <path class="cls-8" d="M275.21,71.4a9.47,9.47,0,0,1-9.47,9.47H208.22a9.47,9.47,0,1,1,0-18.94h57.52a9.46,9.46,0,0,1,9.47,9.47Z" transform="translate(-31.85 -22.23)"/>
      <path class="cls-6" d="M275.21,71.4a9.47,9.47,0,0,1-9.47,9.47H228.6a9.47,9.47,0,1,1,0-18.94h37.14a9.46,9.46,0,0,1,9.47,9.47Z" transform="translate(-31.85 -22.23)"/>
      <path class="cls-2" d="M301.45,101.88a237.41,237.41,0,0,0,50.83-50.83,4.81,4.81,0,0,0-1.11-6.78L325.4,26.16a4.79,4.79,0,0,0-6.62,1.07,196.44,196.44,0,0,1-41.15,41.14A4.81,4.81,0,0,0,276.56,75l18.11,25.77A4.82,4.82,0,0,0,301.45,101.88Z" transform="translate(-31.85 -22.23)"/>
      <path class="cls-3" d="M294.18,92.35l-9.86-14a7.81,7.81,0,0,0,1-.84,7.54,7.54,0,0,0,.65-9.91,198.7,198.7,0,0,0,16.91-15.1A201.75,201.75,0,0,0,318,35.57a7.53,7.53,0,0,0,9.91-.66,6.48,6.48,0,0,0,.84-1l14,9.86a7.54,7.54,0,0,0,.84,9.66,7,7,0,0,0,.78.68,233.38,233.38,0,0,1-18.71,21.14A234.79,234.79,0,0,1,304.53,94a10,10,0,0,0-.68-.78A7.55,7.55,0,0,0,294.18,92.35Z" transform="translate(-31.85 -22.23)"/>
      <path class="cls-3" d="M298.52,98.52l-1.83-2.6a3.18,3.18,0,0,1,4.07.35,3.38,3.38,0,0,1,.31.35Z" transform="translate(-31.85 -22.23)"/>
      <path class="cls-3" d="M281.81,74.75,280,72.15c.85-.62,1.7-1.26,2.54-1.9a3.17,3.17,0,0,1-.3,4.15A2.79,2.79,0,0,1,281.81,74.75Z" transform="translate(-31.85 -22.23)"/>
      <path class="cls-3" d="M320.65,32.13c.64-.84,1.28-1.69,1.91-2.54l2.59,1.82a2.79,2.79,0,0,1-.35.42A3.18,3.18,0,0,1,320.65,32.13Z" transform="translate(-31.85 -22.23)"/>
      <path class="cls-3" d="M346.68,50.36a3.18,3.18,0,0,1-.36-4.07l2.6,1.82c-.62.86-1.26,1.71-1.89,2.55A2.52,2.52,0,0,1,346.68,50.36Z" transform="translate(-31.85 -22.23)"/>
      <path class="cls-2" d="M305.11,73.13c5.73,5.72,14.49,6.24,19.58,1.16s4.57-13.86-1.16-19.58S309,48.46,304,53.55,299.38,67.4,305.11,73.13Z" transform="translate(-31.85 -22.23)"/>
      <path class="cls-3" d="M321.19,71.93c-2.58,2.41-5.91,3.16-7.24,1.83-.7-.71-1.12-2.37-.33-3.16s2.81-.35,4.62-1.62l-3.37-3.37c-2.64,1.19-5.78,2.54-8.44-.12s-1.95-5.87-.06-8.38l-.59-.58a1,1,0,0,1,.23-1.35,1.07,1.07,0,0,1,1.36-.23l.51.52c1.33-1.25,4.1-3.35,5.53-1.91.56.56,1.33,2.07.42,3-.69.68-1.75.41-3.2,1.66l3,3c2.6-1.19,5.78-2.41,8.59.39,2.58,2.58,2.47,5.8.43,8.63l.61.6c.29.29.16,1-.23,1.35a1,1,0,0,1-1.35.23Zm-9.4-9.81-2.47-2.47c-.75,1.12-.67,2-.17,2.49S310.67,62.58,311.79,62.12Zm5,2.68,2.79,2.78a2,2,0,0,0,0-2.57C318.86,64.32,317.9,64.4,316.8,64.8Z" transform="translate(-31.85 -22.23)"/>
      <path class="cls-2" d="M333.17,48.57a4.05,4.05,0,1,1-4.05-4.06A4,4,0,0,1,333.17,48.57Z" transform="translate(-31.85 -22.23)"/>
      <path class="cls-2" d="M303,78.72a4.06,4.06,0,1,1-4-4A4,4,0,0,1,303,78.72Z" transform="translate(-31.85 -22.23)"/>
      <path class="cls-2" d="M275.79,200.43a195.92,195.92,0,0,0,50.74,11.81c-1.15,1.4-2.34,2.76-3.55,4.1a117.23,117.23,0,0,1-10.55,10.24q-3.29,2.8-6.75,5.36a116.79,116.79,0,0,1-10.25,6.74q-2,1.14-4,2.21c-1.13.6-2.29,1.19-3.45,1.76-2.09,1-4.22,2-6.39,2.9q-10.69-3-21.1-7a4.83,4.83,0,0,1-2.74-6.31l11.86-29.17A4.8,4.8,0,0,1,275.79,200.43Z" transform="translate(-31.85 -22.23)"/>
      <path class="cls-3" d="M312.43,226.58q-3.29,2.8-6.75,5.36a116.79,116.79,0,0,1-10.25,6.74q-2,1.14-4,2.21c-1.13.6-2.29,1.19-3.45,1.76q-9.7-2.46-19.18-5.75a6.63,6.63,0,0,0,.29-1,7.54,7.54,0,0,0-4.52-8.58l6.45-15.89a7.42,7.42,0,0,0,1.24.38A7.54,7.54,0,0,0,281,207a201.54,201.54,0,0,0,42,9.33A117.23,117.23,0,0,1,312.43,226.58Z" transform="translate(-31.85 -22.23)"/>
      <path class="cls-3" d="M261.76,234.31l1.19-2.94a3.17,3.17,0,0,1,1.91,3.61,3,3,0,0,1-.13.45Z" transform="translate(-31.85 -22.23)"/>
      <path class="cls-3" d="M272.69,207.4l1.2-2.94,3,1.1a3.16,3.16,0,0,1-3.64,2A3,3,0,0,1,272.69,207.4Z" transform="translate(-31.85 -22.23)"/>
      <path class="cls-2" d="M312.43,226.58q-3.29,2.8-6.75,5.36a116.79,116.79,0,0,1-10.25,6.74q-2,1.14-4,2.21c-4-3.18-6.06-8.91-4.79-14.79,1.72-7.91,8.8-13.1,15.84-11.58C308,215.71,311.86,220.68,312.43,226.58Z" transform="translate(-31.85 -22.23)"/>
      <path class="cls-3" d="M303,218.87l.16-.72c.08-.39-.38-.89-.93-1s-1.17.14-1.26.54l-.17.81c-3.14-.23-6.22.94-7,4.59s2,5.58,4.47,7.16l-1,4.65c-2-.83-2.65-2.74-3.86-3s-2.26,1-2.48,2c-.36,1.66,1.59,3.77,4.5,4.8a116.79,116.79,0,0,0,10.25-6.74c-.45-2.41-2.52-3.88-4.39-5.08l.91-4.2c1.84.56,2.19,1.59,3.13,1.8,1.27.27,2.13-1.2,2.29-2C308.06,220.5,304.79,219.32,303,218.87Zm-4.92,4.68c.15-.69.84-1.23,2.19-1.21l-.74,3.42C298.55,225.07,297.92,224.38,298.1,223.55Zm3.22,10.29a2,2,0,0,1-2.15,1.44l.84-3.86C300.94,232.14,301.52,232.9,301.32,233.84Z" transform="translate(-31.85 -22.23)"/>
      <path class="cls-2" d="M282.7,224a4.06,4.06,0,1,1-4.06-4.05A4.05,4.05,0,0,1,282.7,224Z" transform="translate(-31.85 -22.23)"/>
      <path class="cls-2" d="M200.82,189.07a237.27,237.27,0,0,1-36.74,39.64q-1.76-1.41-3.45-2.9a116.54,116.54,0,0,1-9.08-8.84c-1.28-1.39-2.52-2.81-3.74-4.26s-2.28-2.8-3.37-4.24h0c-1.72-2.27-3.36-4.6-4.9-7q-1.25-1.87-2.38-3.81a196,196,0,0,0,30.17-32.41,4.79,4.79,0,0,1,6.62-1.07q12.9,9,25.78,18.11A4.81,4.81,0,0,1,200.82,189.07Z" transform="translate(-31.85 -22.23)"/>
      <path class="cls-3" d="M192.91,192.14a230.53,230.53,0,0,1-18.71,21.14q-6.52,6.53-13.57,12.53a116.54,116.54,0,0,1-9.08-8.84c-1.28-1.39-2.52-2.81-3.74-4.26s-2.28-2.8-3.37-4.24h0c-1.72-2.27-3.36-4.6-4.9-7q6.16-5.25,11.89-11a200.25,200.25,0,0,0,15.1-16.91,7.54,7.54,0,0,0,9.91-.65,8.73,8.73,0,0,0,.84-1l14,9.86a7.55,7.55,0,0,0,.84,9.67A8,8,0,0,0,192.91,192.14Z" transform="translate(-31.85 -22.23)"/>
      <path class="cls-3" d="M169.2,170.15c.64-.84,1.27-1.69,1.9-2.54l2.6,1.82a2.79,2.79,0,0,1-.35.42A3.17,3.17,0,0,1,169.2,170.15Z" transform="translate(-31.85 -22.23)"/>
      <path class="cls-3" d="M195.22,188.38a3.17,3.17,0,0,1-.35-4.07l2.6,1.83-1.9,2.55A3.38,3.38,0,0,1,195.22,188.38Z" transform="translate(-31.85 -22.23)"/>
      <path class="cls-2" d="M153.65,211.15c5.73,5.73,14.5,6.25,19.59,1.16s4.56-13.85-1.16-19.58-14.5-6.25-19.58-1.16S147.93,205.42,153.65,211.15Z" transform="translate(-31.85 -22.23)"/>
      <path class="cls-3" d="M171.23,208.29c2-2.83,2.14-6-.44-8.63-2.8-2.8-6-1.58-8.58-.39l-3-3c1.46-1.25,2.52-1,3.21-1.67.91-.91.14-2.43-.42-3-1.44-1.43-4.2.66-5.53,1.91l-.52-.52c-.29-.29-.95-.17-1.35.23a1,1,0,0,0-.23,1.35l.58.58c-1.89,2.52-2.58,5.74.06,8.38s5.81,1.31,8.44.12l3.37,3.37c-1.81,1.27-3.74.75-4.61,1.62s-.38,2.45.33,3.16c1.33,1.33,4.66.58,7.23-1.83l.52.52a1,1,0,0,0,1.35-.23c.4-.39.53-1.06.23-1.35Zm-13.53-8.13c-.5-.5-.58-1.37.16-2.49l2.48,2.47C159.22,200.6,158.3,200.76,157.7,200.16Zm10.44,5.45-2.79-2.79c1.1-.39,2.06-.48,2.74.21A2,2,0,0,1,168.14,205.61Z" transform="translate(-31.85 -22.23)"/>
      <path class="cls-2" d="M181.72,186.59a4,4,0,1,1-4.05-4.05A4,4,0,0,1,181.72,186.59Z" transform="translate(-31.85 -22.23)"/>
      <path class="cls-4" d="M151.55,217c-1.28-1.39-2.52-2.81-3.74-4.26a4,4,0,0,1,3.74,4.26Z" transform="translate(-31.85 -22.23)"/>
    </g>
    <text class="cls-9" transform="translate(29.77 123.53)">Payout</text>
  </g>
</svg>
