<svg id="SPIN_HJULENE" data-name="SPIN HJULENE" xmlns="http://www.w3.org/2000/svg" width="312.81" height="192.88" viewBox="0 0 312.81 192.88">
  <defs>
    <style>
      .cls-1 {
        fill: #05c46b;
      }

      .cls-2 {
        font-size: 20.41px;
        font-family: Oswald-Regular, Oswald;
      }

      .cls-3 {
        fill: #0c2461;
      }

      .cls-4 {
        fill: #fd8f07;
      }
    </style>
  </defs>
  <title>spinHjulene</title>
  <g>
    <path class="cls-1" d="M1108,148a95.12,95.12,0,0,1-56.32,86.79,92.55,92.55,0,0,1-8.8,3.41A95.08,95.08,0,1,1,1108,148Z" transform="translate(-802.87 -53)"/>
    <rect class="cls-1" y="72.62" width="137.7" height="55.38" rx="15.47"/>
    <text class="cls-2" transform="translate(11.38 108.05)">SPIN HJULENE</text>
    <path class="cls-3" d="M984.38,87.08A65.28,65.28,0,0,1,1067.15,109l1.18-6.63a5.66,5.66,0,0,1,11.15,2l-4,22.42a5.76,5.76,0,0,1-6.76,5.62l-23.47-4.21a5.66,5.66,0,0,1,2-11.15l13,2.34a53.94,53.94,0,0,0-70.87-22.17,5.66,5.66,0,0,1-5-10.16Zm-1.31,103.38A53.95,53.95,0,0,1,966.83,118l4.49,12.44A5.66,5.66,0,1,0,982,126.6l-8.09-22.43a5.77,5.77,0,0,0-8.17-3.08l-21.51,7.76A5.66,5.66,0,0,0,948,119.5l6.36-2.29a65.27,65.27,0,0,0,22.37,82.66,5.66,5.66,0,1,0,6.3-9.41Zm40.63,32.65a5.66,5.66,0,0,0-.67-8l-5.16-4.36a64.64,64.64,0,0,0,35.25-13.51,65.36,65.36,0,0,0,25.14-47.2,5.67,5.67,0,0,0-11.31-.75,53.95,53.95,0,0,1-54.62,50.3l8.53-10.1a5.66,5.66,0,0,0-8.65-7.31l-15.38,18.22a5.71,5.71,0,0,0,1.47,8.65l17.42,14.71A5.66,5.66,0,0,0,1023.7,223.11Z" transform="translate(-802.87 -53)"/>
    <path class="cls-4" d="M1114.35,225l-26.9-26.9,19.19-11.08a4.52,4.52,0,0,0-.59-8.12l-85.57-34.13a4.52,4.52,0,0,0-5.88,5.87l34.13,85.59a4.53,4.53,0,0,0,8.12.58l11.08-19.19,26.9,26.9a4.5,4.5,0,0,0,6.39,0l13.13-13.13A4.53,4.53,0,0,0,1114.35,225Z" transform="translate(-802.87 -53)"/>
  </g>
</svg>
