<svg id="UDBETAL" xmlns="http://www.w3.org/2000/svg" width="305.13" height="191" viewBox="0 0 305.13 191">
  <defs>
    <style>
      .cls-1 {
        fill: #ff5c3c;
      }

      .cls-2 {
        font-size: 20.41px;
        font-family: Oswald-Regular, Oswald;
      }

      .cls-3 {
        letter-spacing: 0em;
      }

      .cls-4 {
        fill: #05c46b;
      }

      .cls-5 {
        fill: #77d9a5;
      }

      .cls-6 {
        fill: #36b990;
      }

      .cls-7 {
        fill: #00c2cc;
      }

      .cls-8 {
        fill: #ffd32a;
      }

      .cls-9 {
        fill: #0c2461;
      }

      .cls-10 {
        fill: #fd8f07;
      }
    </style>
  </defs>
  <title>udbetal</title>
  <g>
    <rect class="cls-1" y="72.62" width="137.7" height="55.38" rx="15.47"/>
    <text class="cls-2" transform="translate(31.38 108.05)">UDBE<tspan class="cls-3" x="40.84" y="0">T</tspan><tspan x="49.23" y="0">AL</tspan></text>
    <path class="cls-1" d="M1465,148a95.12,95.12,0,0,1-56.32,86.79,92.55,92.55,0,0,1-8.8,3.41A95.08,95.08,0,1,1,1465,148Z" transform="translate(-1159.87 -53)"/>
    <g>
      <path class="cls-4" d="M1277.33,110.72a191.12,191.12,0,0,0,44.38,37,3.91,3.91,0,0,0,5.38-1.34l12.81-21.7a3.81,3.81,0,0,0-1.32-5.2,157.91,157.91,0,0,1-35.92-29.92,3.92,3.92,0,0,0-5.4-.41l-19.5,16.14A3.81,3.81,0,0,0,1277.33,110.72Z" transform="translate(-1159.87 -53)"/>
      <g>
        <path class="cls-5" d="M1284.5,104.3l10.62-8.79a5.11,5.11,0,0,0,.74.73,6.13,6.13,0,0,0,8-.15,157.63,157.63,0,0,0,13.3,12.42,164,164,0,0,0,14.64,10.86,6,6,0,0,0,1.2,7.83,6.05,6.05,0,0,0,.86.6l-7,11.82a6.14,6.14,0,0,0-7.72,1.32,5.12,5.12,0,0,0-.49.66,187.29,187.29,0,0,1-18.29-13.44,186.26,186.26,0,0,1-16.5-15.53,8.28,8.28,0,0,0,.58-.6A6,6,0,0,0,1284.5,104.3Z" transform="translate(-1159.87 -53)"/>
        <path class="cls-5" d="M1279.83,108.16l2-1.63a2.51,2.51,0,0,1,0,3.26,3.44,3.44,0,0,1-.27.27Z" transform="translate(-1159.87 -53)"/>
        <path class="cls-5" d="M1297.82,93.27l2-1.62q.84.94,1.71,1.89a2.58,2.58,0,0,1-3.36,0A1.52,1.52,0,0,1,1297.82,93.27Z" transform="translate(-1159.87 -53)"/>
        <path class="cls-5" d="M1334.77,121.26c.72.46,1.45.9,2.18,1.34l-1.3,2.19a2.6,2.6,0,0,1-.36-.25A2.51,2.51,0,0,1,1334.77,121.26Z" transform="translate(-1159.87 -53)"/>
        <path class="cls-5" d="M1321.88,143.18a2.59,2.59,0,0,1,3.25-.55l-1.29,2.18c-.73-.44-1.46-.88-2.18-1.33Z" transform="translate(-1159.87 -53)"/>
      </g>
      <path class="cls-4" d="M1300.72,111.68c-4.22,4.94-4,11.94.4,15.64s11.46,2.7,15.68-2.24,4-12-.41-15.64S1304.93,106.74,1300.72,111.68Z" transform="translate(-1159.87 -53)"/>
      <path class="cls-5" d="M1302.78,124.38c-2.12-1.88-3-4.48-2-5.62a2.05,2.05,0,0,1,2.52-.48c.76.63.48,2.2,1.62,3.56l2.48-2.91c-1.13-2-2.43-4.42-.48-6.71s4.59-2,6.74-.62l.43-.5a.81.81,0,0,1,1.1.09c.35.28.49.81.28,1.06l-.38.45c1.09,1,3,3,1.91,4.26-.41.48-1.58,1.2-2.38.53-.59-.5-.45-1.36-1.55-2.43l-2.24,2.62c1.13,2,2.34,4.43.27,6.85-1.9,2.22-4.5,2.36-6.91.93l-.44.52c-.22.25-.76.19-1.11-.09a.78.78,0,0,1-.27-1.06Zm7.25-8.13,1.82-2.13c-.95-.52-1.65-.4-2,0S1309.59,115.39,1310,116.25Zm-1.81,4.16-2,2.41a1.6,1.6,0,0,0,2.07-.21C1308.74,122,1308.61,121.26,1308.22,120.41Z" transform="translate(-1159.87 -53)"/>
      <path class="cls-6" d="M1325.4,129.11a3.28,3.28,0,1,1-3.28-3.23A3.26,3.26,0,0,1,1325.4,129.11Z" transform="translate(-1159.87 -53)"/>
      <path class="cls-4" d="M1299.07,107.18a3.28,3.28,0,1,1-3.27-3.23A3.26,3.26,0,0,1,1299.07,107.18Z" transform="translate(-1159.87 -53)"/>
      <path class="cls-4" d="M1343.47,118a192,192,0,0,0,48.39-31.69,3.8,3.8,0,0,0,.21-5.47l-17.49-18.25a3.92,3.92,0,0,0-5.42-.21A158.49,158.49,0,0,1,1330,88.06a3.81,3.81,0,0,0-1.91,5q5.09,11.5,10.2,23A3.89,3.89,0,0,0,1343.47,118Z" transform="translate(-1159.87 -53)"/>
      <path class="cls-5" d="M1339.25,109.43,1333.7,96.9a7.51,7.51,0,0,0,.92-.5,6,6,0,0,0,2.11-7.65,160.69,160.69,0,0,0,15.8-9.12,161,161,0,0,0,14.66-10.82,6.14,6.14,0,0,0,8,1,5.8,5.8,0,0,0,.82-.64l9.52,9.93a6,6,0,0,0-.88,7.69,4.56,4.56,0,0,0,.51.65,188.84,188.84,0,0,1-18.2,13.56,189.28,189.28,0,0,1-19.73,11.28,5.75,5.75,0,0,0-.42-.71A6.12,6.12,0,0,0,1339.25,109.43Z" transform="translate(-1159.87 -53)"/>
      <path class="cls-5" d="M1341.69,114.94l-1-2.32a2.59,2.59,0,0,1,3.17.92,2,2,0,0,1,.18.32C1343.24,114.23,1342.47,114.58,1341.69,114.94Z" transform="translate(-1159.87 -53)"/>
      <path class="cls-5" d="M1332.28,93.71l-1-2.32c.77-.35,1.54-.72,2.31-1.09a2.51,2.51,0,0,1-.9,3.2A2.42,2.42,0,0,1,1332.28,93.71Z" transform="translate(-1159.87 -53)"/>
      <path class="cls-5" d="M1369.86,66.54l1.91-1.68,1.77,1.83a3.3,3.3,0,0,1-.35.28A2.59,2.59,0,0,1,1369.86,66.54Z" transform="translate(-1159.87 -53)"/>
      <path class="cls-5" d="M1387.53,84.92a2.51,2.51,0,0,1,.38-3.24l1.76,1.84c-.63.57-1.27,1.13-1.91,1.69A3.25,3.25,0,0,1,1387.53,84.92Z" transform="translate(-1159.87 -53)"/>
      <path class="cls-6" d="M1351,96.13c3.61,5.39,10.47,7.18,15.31,4s5.84-10.1,2.22-15.49-10.47-7.18-15.31-4S1347.36,90.75,1351,96.13Z" transform="translate(-1159.87 -53)"/>
      <path class="cls-5" d="M1363.9,97.74c-2.43,1.48-5.18,1.54-6,.29a2,2,0,0,1,.25-2.53c.83-.54,2.27.17,3.91-.53l-2.13-3.17c-2.28.51-5,1.07-6.66-1.43s-.6-4.89,1.3-6.56l-.37-.55c-.18-.27,0-.73.4-1s.92-.24,1.1,0l.33.48c1.25-.76,3.78-2,4.68-.61.36.52.72,1.83-.15,2.4-.65.43-1.44,0-2.8.79l1.92,2.86c2.25-.52,5-1,6.73,1.67,1.63,2.42,1,4.92-1,6.81l.38.57c.18.27,0,.77-.4,1a.81.81,0,0,1-1.1,0ZM1358,88.58l-1.56-2.32c-.78.76-.85,1.45-.53,1.92S1357.08,88.76,1358,88.58Zm3.53,2.89,1.76,2.62a1.54,1.54,0,0,0,.38-2C1363.28,91.43,1362.51,91.34,1361.57,91.47Z" transform="translate(-1159.87 -53)"/>
      <path class="cls-6" d="M1377.2,80.73a3.27,3.27,0,1,1-3.27-3.23A3.26,3.26,0,0,1,1377.2,80.73Z" transform="translate(-1159.87 -53)"/>
      <path class="cls-6" d="M1348.5,99.53a3.28,3.28,0,1,1-3.28-3.23A3.25,3.25,0,0,1,1348.5,99.53Z" transform="translate(-1159.87 -53)"/>
      <path class="cls-4" d="M1395.56,172.68a193,193,0,0,0,54.77-19,3.82,3.82,0,0,0,1.57-5.26l-12.43-21.92a3.9,3.9,0,0,0-5.19-1.52,159.65,159.65,0,0,1-44.34,15.38,3.83,3.83,0,0,0-3.1,4.39l4.17,24.79A3.89,3.89,0,0,0,1395.56,172.68Z" transform="translate(-1159.87 -53)"/>
      <path class="cls-5" d="M1393.6,163.32l-2.27-13.5a5.46,5.46,0,0,0,1-.26,6,6,0,0,0,3.94-6.9,164.12,164.12,0,0,0,17.59-5,162,162,0,0,0,16.89-7,6.12,6.12,0,0,0,7.45,3,6.38,6.38,0,0,0,1-.43l6.76,11.94a6,6,0,0,0-2.77,7.24q.15.39.33.75a188.73,188.73,0,0,1-21,8.74,190.07,190.07,0,0,1-21.93,6.15,4.66,4.66,0,0,0-.22-.79A6.08,6.08,0,0,0,1393.6,163.32Z" transform="translate(-1159.87 -53)"/>
      <path class="cls-5" d="M1394.6,169.25l-.42-2.5a2.57,2.57,0,0,1,2.84,1.66c0,.12.07.24.1.36Z" transform="translate(-1159.87 -53)"/>
      <path class="cls-5" d="M1390.75,146.39l-.42-2.5,2.52-.49a2.53,2.53,0,0,1-1.67,2.88A2.09,2.09,0,0,1,1390.75,146.39Z" transform="translate(-1159.87 -53)"/>
      <path class="cls-5" d="M1433.93,129.16l2.27-1.17,1.25,2.21a2.43,2.43,0,0,1-.4.18A2.58,2.58,0,0,1,1433.93,129.16Z" transform="translate(-1159.87 -53)"/>
      <path class="cls-5" d="M1446.5,151.25a2.5,2.5,0,0,1,1.16-3l1.25,2.21-2.26,1.17A1.75,1.75,0,0,1,1446.5,151.25Z" transform="translate(-1159.87 -53)"/>
      <path class="cls-6" d="M1408.27,153.26c2.17,6.1,8.37,9.5,13.85,7.6s8.17-8.38,6-14.48-8.37-9.5-13.85-7.6S1406.1,147.17,1408.27,153.26Z" transform="translate(-1159.87 -53)"/>
      <path class="cls-5" d="M1420.4,158c-2.72.84-5.4.23-5.91-1.18a2,2,0,0,1,.87-2.39c.94-.32,2.16.72,3.92.43l-1.27-3.59c-2.34-.06-5.09-.17-6.1-3s.63-4.89,2.88-6l-.22-.61c-.11-.31.15-.73.64-.9s1,0,1.07.31l.19.55c1.41-.44,4.15-1,4.7.53.21.6.24,2-.75,2.3-.74.26-1.41-.3-2.91.09l1.15,3.23c2.3,0,5,.26,6.11,3.25,1,2.74-.23,5-2.7,6.35l.23.64c.11.31-.21.75-.64.9a.81.81,0,0,1-1.06-.31Zm-3.41-10.3-.93-2.63c-.94.55-1.19,1.2-1,1.73S1416,147.6,1417,147.66Zm2.71,3.66,1,3a1.56,1.56,0,0,0,.88-1.86C1421.37,151.69,1420.64,151.42,1419.7,151.32Z" transform="translate(-1159.87 -53)"/>
      <path class="cls-4" d="M1437.62,143.9a3.28,3.28,0,1,1-3.27-3.23A3.26,3.26,0,0,1,1437.62,143.9Z" transform="translate(-1159.87 -53)"/>
      <path class="cls-6" d="M1405.12,155.17a3.27,3.27,0,1,1-3.27-3.23A3.25,3.25,0,0,1,1405.12,155.17Z" transform="translate(-1159.87 -53)"/>
      <path class="cls-4" d="M1460.52,176.11c-.34,1.21-.7,2.41-1.09,3.6a90.78,90.78,0,0,1-3.89,9.95q-1.33,2.91-2.88,5.72c-1.45,2.66-3,5.24-4.74,7.74-.67,1-1.36,1.95-2.07,2.9a190.56,190.56,0,0,1-36.11-31.68,3.8,3.8,0,0,1,.43-5.46l19.5-16.14a3.92,3.92,0,0,1,5.4.41A158.07,158.07,0,0,0,1460.52,176.11Z" transform="translate(-1159.87 -53)"/>
      <path class="cls-5" d="M1459.43,179.71a90.78,90.78,0,0,1-3.89,9.95q-1.33,2.91-2.88,5.72c-1.45,2.66-3,5.24-4.74,7.74a188.68,188.68,0,0,1-15.1-11.33,186.29,186.29,0,0,1-16.5-15.54,6.47,6.47,0,0,0,.58-.59,6,6,0,0,0,0-7.74l10.62-8.78a6.39,6.39,0,0,0,.74.73,6.14,6.14,0,0,0,8-.15,162.48,162.48,0,0,0,13.3,12.42C1452.76,174.78,1456.05,177.31,1459.43,179.71Z" transform="translate(-1159.87 -53)"/>
      <path class="cls-5" d="M1412.25,171.79l2-1.63a2.51,2.51,0,0,1,0,3.26,2.13,2.13,0,0,1-.26.26C1413.37,173.06,1412.81,172.42,1412.25,171.79Z" transform="translate(-1159.87 -53)"/>
      <path class="cls-5" d="M1430.23,156.9l2-1.62c.57.63,1.13,1.26,1.71,1.89a2.59,2.59,0,0,1-3.36,0A2.27,2.27,0,0,1,1430.23,156.9Z" transform="translate(-1159.87 -53)"/>
      <path class="cls-4" d="M1433.12,175.31c-4.21,4.94-4,11.95.41,15.64s11.46,2.7,15.68-2.24,4-11.94-.41-15.64S1437.34,170.37,1433.12,175.31Z" transform="translate(-1159.87 -53)"/>
      <path class="cls-5" d="M1447.53,176.32l.38-.45c.22-.25.07-.77-.27-1.05a.82.82,0,0,0-1.11-.09l-.43.5c-2.15-1.34-4.79-1.67-6.73.61s-.66,4.7.47,6.72l-2.48,2.9c-1.14-1.35-.85-2.92-1.61-3.56a2.06,2.06,0,0,0-2.52.48c-1,1.15-.15,3.74,2,5.63l-.38.45c-.21.25-.12.72.28,1s.88.35,1.1.1l.44-.52c2.42,1.42,5,1.29,6.92-.93,2.06-2.42.86-4.87-.28-6.85l2.24-2.62c1.1,1.07,1,1.93,1.56,2.43.8.67,2-.05,2.38-.53C1450.5,179.35,1448.62,177.3,1447.53,176.32Zm-6.88,9.92a1.59,1.59,0,0,1-2.07.2l2.05-2.4C1441,184.89,1441.16,185.64,1440.65,186.24Zm1.79-6.36c-.44-.86-.64-1.58-.19-2.1s1.06-.56,2,0Z" transform="translate(-1159.87 -53)"/>
      <path class="cls-4" d="M1455.54,189.66q-1.33,2.91-2.88,5.72l-.23-.17a3.22,3.22,0,0,1-.4-4.56A3.31,3.31,0,0,1,1455.54,189.66Z" transform="translate(-1159.87 -53)"/>
      <path class="cls-6" d="M1431.48,170.81a3.28,3.28,0,1,1-3.27-3.24A3.25,3.25,0,0,1,1431.48,170.81Z" transform="translate(-1159.87 -53)"/>
      <path class="cls-7" d="M1446.44,192.84a64.42,64.42,0,0,1-1.57,14.49c-.79,1-1.6,2-2.42,3s-1.89,2.2-2.87,3.27a92.66,92.66,0,0,1-8.52,8.17c-1.76,1.49-3.58,2.92-5.45,4.27a93.14,93.14,0,0,1-8.28,5.38c-1,.61-2.12,1.19-3.2,1.76-.91.48-1.84.95-2.78,1.41-1.69.82-3.42,1.59-5.16,2.31a94.69,94.69,0,0,1-110.79-29.59,63.69,63.69,0,0,1-1.57-14.48c0-41.63,34.16-93.91,76.3-93.91S1446.44,151.21,1446.44,192.84Z" transform="translate(-1159.87 -53)"/>
      <path class="cls-8" d="M1367.69,204.74c-10.68-.35-19.4-5.8-19.4-11.43,0-3,2.67-7.38,6-7.38,3.74,0,6.76,5.19,13.35,6.33V178c-8.19-3.08-17.8-6.86-17.8-18.11s8.36-16.52,17.8-17.84v-2.46c0-1.23,1.42-2.37,3.38-2.37,1.69,0,3.38,1.14,3.38,2.37v2.2c5.52.17,15.93,1.58,15.93,7.64,0,2.38-1.6,7.21-5.52,7.21-2.94,0-4.63-2.81-10.41-3.25v12.83c8.1,3,17.53,7.12,17.53,19,0,10.9-7.12,17.49-17.53,19.16v2.55c0,1.23-1.69,2.37-3.38,2.37-2,0-3.38-1.14-3.38-2.37Zm.89-40.61V153.67c-4,.79-5.7,2.81-5.7,4.92C1362.88,161.14,1365.19,162.72,1368.58,164.13Zm5,16.26v11.78c3-.7,5.43-2.37,5.43-5.54C1379,183.73,1376.76,181.89,1373.56,180.39Z" transform="translate(-1159.87 -53)"/>
      <path class="cls-7" d="M1393.36,90.81c2.57-7,41.87-31.67-23.23-31.67s-25.79,24.65-23.22,31.67" transform="translate(-1159.87 -53)"/>
      <path class="cls-9" d="M1330.47,192.84c0,24.19,6,39.46,15.32,48a93.89,93.89,0,0,1-50.39-33.51,63.85,63.85,0,0,1-1.57-14.49c0-41.63,34.16-93.91,76.3-93.91C1348.23,98.93,1330.47,151.21,1330.47,192.84Z" transform="translate(-1159.87 -53)"/>
      <path class="cls-9" d="M1358.06,90.81h-11.15c-2.56-7-41.59-31.49,22.53-31.67C1336.58,59.49,1356.73,83.84,1358.06,90.81Z" transform="translate(-1159.87 -53)"/>
      <path class="cls-10" d="M1401,98a7.6,7.6,0,0,1-7.65,7.55h-46.45a7.72,7.72,0,0,1-5.41-2.21,7.51,7.51,0,0,1-2.24-5.34,7.6,7.6,0,0,1,7.65-7.56h46.45a7.68,7.68,0,0,1,5.41,2.22A7.48,7.48,0,0,1,1401,98Z" transform="translate(-1159.87 -53)"/>
      <path class="cls-8" d="M1401,98a7.6,7.6,0,0,1-7.65,7.55h-30a7.7,7.7,0,0,1-5.41-2.21,7.51,7.51,0,0,1-2.24-5.34,7.6,7.6,0,0,1,7.65-7.56h30a7.68,7.68,0,0,1,5.41,2.22A7.48,7.48,0,0,1,1401,98Z" transform="translate(-1159.87 -53)"/>
      <path class="cls-4" d="M1422.2,122.3a190.43,190.43,0,0,0,41-40.55,3.82,3.82,0,0,0-.9-5.41L1441.54,61.9a3.91,3.91,0,0,0-5.35.85A157.16,157.16,0,0,1,1403,95.57a3.81,3.81,0,0,0-.86,5.29l14.62,20.55A3.92,3.92,0,0,0,1422.2,122.3Z" transform="translate(-1159.87 -53)"/>
      <path class="cls-5" d="M1416.33,114.7l-8-11.19a6.31,6.31,0,0,0,.8-.67,6,6,0,0,0,.53-7.91,157.89,157.89,0,0,0,13.65-12,159,159,0,0,0,12.19-13.49,6.15,6.15,0,0,0,8-.52,5.5,5.5,0,0,0,.67-.79L1455.55,76a6,6,0,0,0,.68,7.7,6.53,6.53,0,0,0,.63.55,187.24,187.24,0,0,1-15.11,16.85A186.7,186.7,0,0,1,1424.68,116a5.31,5.31,0,0,0-.55-.62A6.14,6.14,0,0,0,1416.33,114.7Z" transform="translate(-1159.87 -53)"/>
      <path class="cls-5" d="M1419.83,119.62l-1.47-2.07a2.57,2.57,0,0,1,3.28.28,2.18,2.18,0,0,1,.25.28C1421.21,118.62,1420.52,119.12,1419.83,119.62Z" transform="translate(-1159.87 -53)"/>
      <path class="cls-5" d="M1406.34,100.66l-1.47-2.07c.69-.5,1.37-1,2.05-1.52a2.51,2.51,0,0,1-.24,3.31A3,3,0,0,1,1406.34,100.66Z" transform="translate(-1159.87 -53)"/>
      <path class="cls-5" d="M1437.71,66.66c.51-.67,1-1.35,1.53-2l2.1,1.46a2.22,2.22,0,0,1-.28.33A2.57,2.57,0,0,1,1437.71,66.66Z" transform="translate(-1159.87 -53)"/>
      <path class="cls-5" d="M1458.72,81.2a2.5,2.5,0,0,1-.28-3.24l2.09,1.45q-.75,1-1.53,2Z" transform="translate(-1159.87 -53)"/>
      <path class="cls-4" d="M1425.15,99.37c4.63,4.56,11.71,5,15.82.92s3.68-11.05-.94-15.62-11.7-5-15.81-.92S1420.53,94.8,1425.15,99.37Z" transform="translate(-1159.87 -53)"/>
      <path class="cls-5" d="M1438.14,98.41c-2.08,1.93-4.77,2.52-5.84,1.46a2,2,0,0,1-.27-2.52c.7-.7,2.26-.28,3.72-1.29L1433,93.37c-2.14.95-4.67,2-6.82-.1s-1.58-4.68,0-6.68l-.47-.47c-.24-.23-.19-.71.18-1.07s.86-.42,1.1-.19l.42.42c1.07-1,3.3-2.67,4.46-1.53.45.45,1.07,1.66.34,2.39-.56.55-1.41.33-2.59,1.33l2.45,2.42c2.1-1,4.67-1.92,6.93.31,2.09,2.06,2,4.63.36,6.89l.48.48c.24.23.14.76-.18,1.07a.81.81,0,0,1-1.09.19Zm-7.59-7.83-2-2c-.6.9-.53,1.59-.13,2S1429.64,91,1430.55,90.58Zm4,2.14,2.25,2.22a1.54,1.54,0,0,0,0-2C1436.26,92.34,1435.49,92.41,1434.6,92.72Z" transform="translate(-1159.87 -53)"/>
      <path class="cls-4" d="M1447.82,79.77a3.28,3.28,0,1,1-3.27-3.23A3.26,3.26,0,0,1,1447.82,79.77Z" transform="translate(-1159.87 -53)"/>
      <path class="cls-4" d="M1423.47,103.83a3.28,3.28,0,1,1-3.28-3.23A3.26,3.26,0,0,1,1423.47,103.83Z" transform="translate(-1159.87 -53)"/>
      <path class="cls-4" d="M1401.47,200.92a160.32,160.32,0,0,0,41,9.42q-1.4,1.66-2.87,3.27a92.66,92.66,0,0,1-8.52,8.17c-1.76,1.49-3.58,2.92-5.45,4.27a93.14,93.14,0,0,1-8.28,5.38c-1,.61-2.12,1.19-3.2,1.76-.91.48-1.84.95-2.78,1.41-1.69.82-3.42,1.59-5.16,2.31q-8.64-2.39-17-5.55a3.82,3.82,0,0,1-2.21-5l9.57-23.27A3.88,3.88,0,0,1,1401.47,200.92Z" transform="translate(-1159.87 -53)"/>
      <path class="cls-5" d="M1431.06,221.78c-1.76,1.49-3.58,2.92-5.45,4.27a93.14,93.14,0,0,1-8.28,5.38c-1,.61-2.12,1.19-3.2,1.76-.91.48-1.84.95-2.78,1.41q-7.85-2-15.49-4.59a4.32,4.32,0,0,0,.23-.8,6,6,0,0,0-3.65-6.83l5.21-12.68a5.51,5.51,0,0,0,1,.3,6.1,6.1,0,0,0,7-3.84,163.35,163.35,0,0,0,33.91,7.45A92.66,92.66,0,0,1,1431.06,221.78Z" transform="translate(-1159.87 -53)"/>
      <path class="cls-5" d="M1390.15,228l1-2.35a2.51,2.51,0,0,1,1.54,2.88,2.42,2.42,0,0,1-.1.36Z" transform="translate(-1159.87 -53)"/>
      <path class="cls-5" d="M1399,206.47l1-2.34,2.4.88a2.56,2.56,0,0,1-2.94,1.59A1.87,1.87,0,0,1,1399,206.47Z" transform="translate(-1159.87 -53)"/>
      <path class="cls-4" d="M1431.06,221.78c-1.76,1.49-3.58,2.92-5.45,4.27a93.14,93.14,0,0,1-8.28,5.38c-1,.61-2.12,1.19-3.2,1.76a11.75,11.75,0,0,1-3.87-11.79c1.39-6.32,7.11-10.46,12.79-9.24C1427.5,213.11,1430.6,217.07,1431.06,221.78Z" transform="translate(-1159.87 -53)"/>
      <path class="cls-5" d="M1423.47,215.63l.12-.58c.07-.31-.3-.71-.74-.8s-.95.11-1,.43l-.14.64c-2.53-.18-5,.75-5.66,3.66s1.65,4.45,3.61,5.71l-.82,3.72c-1.65-.67-2.14-2.19-3.12-2.4s-1.82.81-2,1.59c-.3,1.32,1.28,3,3.62,3.83a93.14,93.14,0,0,0,8.28-5.38c-.36-1.92-2-3.09-3.54-4.05l.74-3.35c1.48.44,1.76,1.27,2.53,1.43,1,.22,1.71-1,1.84-1.57C1427.53,216.93,1424.9,216,1423.47,215.63Zm-4,3.73c.12-.55.68-1,1.77-1l-.6,2.72C1419.86,220.57,1419.35,220,1419.49,219.36Zm2.6,8.21a1.58,1.58,0,0,1-1.73,1.14l.67-3.07C1421.78,226.21,1422.26,226.81,1422.09,227.57Z" transform="translate(-1159.87 -53)"/>
      <path class="cls-4" d="M1407.06,219.7a3.28,3.28,0,1,1-3.28-3.24A3.26,3.26,0,0,1,1407.06,219.7Z" transform="translate(-1159.87 -53)"/>
      <path class="cls-4" d="M1340.94,191.85a190.76,190.76,0,0,1-29.67,31.63c-1-.76-1.88-1.53-2.79-2.32a93.85,93.85,0,0,1-7.33-7c-1-1.11-2-2.24-3-3.4s-1.85-2.23-2.73-3.38h0c-1.39-1.81-2.72-3.67-4-5.58-.67-1-1.3-2-1.92-3a156.94,156.94,0,0,0,24.36-25.85,3.91,3.91,0,0,1,5.35-.85L1340,186.44A3.81,3.81,0,0,1,1340.94,191.85Z" transform="translate(-1159.87 -53)"/>
      <path class="cls-5" d="M1334.55,194.31a185.69,185.69,0,0,1-15.11,16.86q-5.26,5.19-11,10a93.85,93.85,0,0,1-7.33-7c-1-1.11-2-2.24-3-3.4s-1.85-2.23-2.73-3.38h0c-1.39-1.81-2.72-3.67-4-5.58,3.32-2.78,6.53-5.71,9.61-8.75a162.07,162.07,0,0,0,12.18-13.48,6.16,6.16,0,0,0,8-.52,6.31,6.31,0,0,0,.67-.8l11.34,7.87a6,6,0,0,0,.67,7.71A8.14,8.14,0,0,0,1334.55,194.31Z" transform="translate(-1159.87 -53)"/>
      <path class="cls-5" d="M1315.4,176.76c.52-.67,1-1.35,1.54-2l2.09,1.46a3,3,0,0,1-.28.34A2.59,2.59,0,0,1,1315.4,176.76Z" transform="translate(-1159.87 -53)"/>
      <path class="cls-5" d="M1336.41,191.31a2.51,2.51,0,0,1-.28-3.25l2.1,1.45-1.53,2A3.36,3.36,0,0,1,1336.41,191.31Z" transform="translate(-1159.87 -53)"/>
      <path class="cls-4" d="M1302.85,209.47c4.62,4.57,11.7,5,15.81.92s3.69-11-.94-15.62-11.7-5-15.81-.92S1298.22,204.9,1302.85,209.47Z" transform="translate(-1159.87 -53)"/>
      <path class="cls-5" d="M1317,207.19c1.64-2.26,1.73-4.83-.35-6.89-2.27-2.23-4.84-1.26-6.93-.31l-2.46-2.42c1.18-1,2-.78,2.59-1.33.74-.73.11-1.94-.34-2.39-1.16-1.14-3.39.54-4.46,1.53l-.42-.41c-.24-.24-.77-.14-1.09.18a.79.79,0,0,0-.19,1.07l.47.47c-1.52,2-2.08,4.58.05,6.68s4.69,1,6.82.1l2.72,2.69c-1.46,1-3,.6-3.73,1.29A2,2,0,0,0,1310,210c1.07,1.06,3.76.46,5.84-1.46l.42.42a.81.81,0,0,0,1.09-.19c.32-.31.42-.84.19-1.07Zm-10.93-6.49c-.4-.4-.47-1.09.14-2l2,2C1307.34,201.05,1306.6,201.18,1306.11,200.7Zm8.43,4.35-2.25-2.22c.89-.32,1.66-.39,2.21.16A1.54,1.54,0,0,1,1314.54,205.05Z" transform="translate(-1159.87 -53)"/>
      <path class="cls-4" d="M1325.51,189.88a3.27,3.27,0,1,1-3.27-3.24A3.25,3.25,0,0,1,1325.51,189.88Z" transform="translate(-1159.87 -53)"/>
      <path class="cls-6" d="M1301.15,214.11c-1-1.11-2-2.24-3-3.4a3.26,3.26,0,0,1,2.07.93A3.19,3.19,0,0,1,1301.15,214.11Z" transform="translate(-1159.87 -53)"/>
    </g>
  </g>
</svg>
